<svg width="132" height="35" viewBox="0 0 132 35" fill="none" xmlns="http://www.w3.org/2000/svg">
<g id="WordMark_Main">
<g id="Group 26">
<g id="Group 23">
<g id="Vector">
<path d="M55.1999 22.1176L58.7476 4H66.1364L65.3805 7.92885H67.51L66.0714 15.4063H63.9419L62.863 19.7238C59.931 21.02 57.9144 21.6653 55.1999 22.1176Z" fill="#333333"/>
<path d="M55.1999 22.1176L58.7476 4H66.1364L65.3805 7.92885H67.51L66.0714 15.4063H63.9419L62.863 19.7238C59.931 21.02 57.9144 21.6653 55.1999 22.1176Z" fill="black" fill-opacity="0.2"/>
<path d="M55.1999 22.1176L58.7476 4H66.1364L65.3805 7.92885H67.51L66.0714 15.4063H63.9419L62.863 19.7238C59.931 21.02 57.9144 21.6653 55.1999 22.1176Z" fill="black" fill-opacity="0.2"/>
</g>
<g id="Vector_2">
<path d="M37.264 17.3074L38.1772 12.5608C38.9459 12.2846 39.803 11.5482 40.2447 9.73786H38.7203L39.8242 4H58.0541L56.9502 9.73786H55.4259C55.1768 11.5175 55.7448 12.2846 56.4071 12.5608L55.4939 17.3074C54.1562 17.3074 51.9838 16.7951 51.2674 15.5064L50.5078 16.0587C51.0431 16.6724 51.8853 17.3074 51.8853 17.3074C51.8853 17.3074 48.2529 18.9449 46.1663 18.5748C44.0288 18.1956 43.195 17.0406 41.9347 15.5064L41.1751 16.0587C41.654 16.6417 42.8637 17.3074 42.8637 17.3074C42.8637 17.3074 38.5445 18.5748 37.264 17.3074ZM48.9241 9.73786H46.7153C46.6214 10.8732 46.9908 11.7016 47.4 12.1619C48.0292 11.6402 48.6123 10.8732 48.9241 9.73786Z" fill="#333333"/>
<path d="M37.264 17.3074L38.1772 12.5608C38.9459 12.2846 39.803 11.5482 40.2447 9.73786H38.7203L39.8242 4H58.0541L56.9502 9.73786H55.4259C55.1768 11.5175 55.7448 12.2846 56.4071 12.5608L55.4939 17.3074C54.1562 17.3074 51.9838 16.7951 51.2674 15.5064L50.5078 16.0587C51.0431 16.6724 51.8853 17.3074 51.8853 17.3074C51.8853 17.3074 48.2529 18.9449 46.1663 18.5748C44.0288 18.1956 43.195 17.0406 41.9347 15.5064L41.1751 16.0587C41.654 16.6417 42.8637 17.3074 42.8637 17.3074C42.8637 17.3074 38.5445 18.5748 37.264 17.3074ZM48.9241 9.73786H46.7153C46.6214 10.8732 46.9908 11.7016 47.4 12.1619C48.0292 11.6402 48.6123 10.8732 48.9241 9.73786Z" fill="black" fill-opacity="0.2"/>
<path d="M37.264 17.3074L38.1772 12.5608C38.9459 12.2846 39.803 11.5482 40.2447 9.73786H38.7203L39.8242 4H58.0541L56.9502 9.73786H55.4259C55.1768 11.5175 55.7448 12.2846 56.4071 12.5608L55.4939 17.3074C54.1562 17.3074 51.9838 16.7951 51.2674 15.5064L50.5078 16.0587C51.0431 16.6724 51.8853 17.3074 51.8853 17.3074C51.8853 17.3074 48.2529 18.9449 46.1663 18.5748C44.0288 18.1956 43.195 17.0406 41.9347 15.5064L41.1751 16.0587C41.654 16.6417 42.8637 17.3074 42.8637 17.3074C42.8637 17.3074 38.5445 18.5748 37.264 17.3074ZM48.9241 9.73786H46.7153C46.6214 10.8732 46.9908 11.7016 47.4 12.1619C48.0292 11.6402 48.6123 10.8732 48.9241 9.73786Z" fill="black" fill-opacity="0.2"/>
</g>
<g id="Vector_3">
<path d="M112.934 22.6016L116.481 4H123.87L123.114 7.92885H125.244L123.805 15.4063H121.676L120.597 21.0145C118.161 21.9333 115.669 22.6016 112.934 22.6016Z" fill="#333333"/>
<path d="M112.934 22.6016L116.481 4H123.87L123.114 7.92885H125.244L123.805 15.4063H121.676L120.597 21.0145C118.161 21.9333 115.669 22.6016 112.934 22.6016Z" fill="black" fill-opacity="0.2"/>
<path d="M112.934 22.6016L116.481 4H123.87L123.114 7.92885H125.244L123.805 15.4063H121.676L120.597 21.0145C118.161 21.9333 115.669 22.6016 112.934 22.6016Z" fill="black" fill-opacity="0.2"/>
</g>
<g id="Vector_4">
<path d="M94.9974 17.3074L95.9106 12.5608C96.6793 12.2846 97.5364 11.5482 97.9781 9.73786H96.4537L97.5576 4H115.788L114.684 9.73786H113.159C112.91 11.5175 113.478 12.2846 114.141 12.5608L113.227 17.3074C111.89 17.3074 109.717 16.7951 109.001 15.5064L108.241 16.0587C108.776 16.6724 109.619 17.3074 109.619 17.3074C109.619 17.3074 105.986 18.9449 103.9 18.5748C101.762 18.1956 100.928 17.0406 99.6681 15.5064L98.9085 16.0587C99.3874 16.6417 100.597 17.3074 100.597 17.3074C100.597 17.3074 96.2779 18.5748 94.9974 17.3074ZM106.657 9.73786H104.449C104.355 10.8732 104.724 11.7016 105.133 12.1619C105.763 11.6402 106.346 10.8732 106.657 9.73786Z" fill="#333333"/>
<path d="M94.9974 17.3074L95.9106 12.5608C96.6793 12.2846 97.5364 11.5482 97.9781 9.73786H96.4537L97.5576 4H115.788L114.684 9.73786H113.159C112.91 11.5175 113.478 12.2846 114.141 12.5608L113.227 17.3074C111.89 17.3074 109.717 16.7951 109.001 15.5064L108.241 16.0587C108.776 16.6724 109.619 17.3074 109.619 17.3074C109.619 17.3074 105.986 18.9449 103.9 18.5748C101.762 18.1956 100.928 17.0406 99.6681 15.5064L98.9085 16.0587C99.3874 16.6417 100.597 17.3074 100.597 17.3074C100.597 17.3074 96.2779 18.5748 94.9974 17.3074ZM106.657 9.73786H104.449C104.355 10.8732 104.724 11.7016 105.133 12.1619C105.763 11.6402 106.346 10.8732 106.657 9.73786Z" fill="black" fill-opacity="0.2"/>
<path d="M94.9974 17.3074L95.9106 12.5608C96.6793 12.2846 97.5364 11.5482 97.9781 9.73786H96.4537L97.5576 4H115.788L114.684 9.73786H113.159C112.91 11.5175 113.478 12.2846 114.141 12.5608L113.227 17.3074C111.89 17.3074 109.717 16.7951 109.001 15.5064L108.241 16.0587C108.776 16.6724 109.619 17.3074 109.619 17.3074C109.619 17.3074 105.986 18.9449 103.9 18.5748C101.762 18.1956 100.928 17.0406 99.6681 15.5064L98.9085 16.0587C99.3874 16.6417 100.597 17.3074 100.597 17.3074C100.597 17.3074 96.2779 18.5748 94.9974 17.3074ZM106.657 9.73786H104.449C104.355 10.8732 104.724 11.7016 105.133 12.1619C105.763 11.6402 106.346 10.8732 106.657 9.73786Z" fill="black" fill-opacity="0.2"/>
</g>
<g id="Vector_5">
<path d="M8.91786 13.4419L10.7344 4H26.8993L25.7954 9.73786C23.9079 9.73786 20.633 9.73786 18.3099 9.73786L17.7668 12.5608C19.5335 13.1884 22.3172 13.2261 25.2523 12.5608L24.3391 17.3074C24.3391 17.3074 18.6102 18.5748 13.8672 18.5748C9.35003 18.5748 8.25343 16.8955 8.91786 13.4419Z" fill="#333333"/>
<path d="M8.91786 13.4419L10.7344 4H26.8993L25.7954 9.73786C23.9079 9.73786 20.633 9.73786 18.3099 9.73786L17.7668 12.5608C19.5335 13.1884 22.3172 13.2261 25.2523 12.5608L24.3391 17.3074C24.3391 17.3074 18.6102 18.5748 13.8672 18.5748C9.35003 18.5748 8.25343 16.8955 8.91786 13.4419Z" fill="black" fill-opacity="0.2"/>
<path d="M8.91786 13.4419L10.7344 4H26.8993L25.7954 9.73786C23.9079 9.73786 20.633 9.73786 18.3099 9.73786L17.7668 12.5608C19.5335 13.1884 22.3172 13.2261 25.2523 12.5608L24.3391 17.3074C24.3391 17.3074 18.6102 18.5748 13.8672 18.5748C9.35003 18.5748 8.25343 16.8955 8.91786 13.4419Z" fill="black" fill-opacity="0.2"/>
<path d="M8.91786 13.4419L10.7344 4H26.8993L25.7954 9.73786C23.9079 9.73786 20.633 9.73786 18.3099 9.73786L17.7668 12.5608C19.5335 13.1884 22.3172 13.2261 25.2523 12.5608L24.3391 17.3074C24.3391 17.3074 18.6102 18.5748 13.8672 18.5748C9.35003 18.5748 8.25343 16.8955 8.91786 13.4419Z" fill="#333333"/>
<path d="M8.91786 13.4419L10.7344 4H26.8993L25.7954 9.73786C23.9079 9.73786 20.633 9.73786 18.3099 9.73786L17.7668 12.5608C19.5335 13.1884 22.3172 13.2261 25.2523 12.5608L24.3391 17.3074C24.3391 17.3074 18.6102 18.5748 13.8672 18.5748C9.35003 18.5748 8.25343 16.8955 8.91786 13.4419Z" fill="black" fill-opacity="0.2"/>
<path d="M8.91786 13.4419L10.7344 4H26.8993L25.7954 9.73786C23.9079 9.73786 20.633 9.73786 18.3099 9.73786L17.7668 12.5608C19.5335 13.1884 22.3172 13.2261 25.2523 12.5608L24.3391 17.3074C24.3391 17.3074 18.6102 18.5748 13.8672 18.5748C9.35003 18.5748 8.25343 16.8955 8.91786 13.4419Z" fill="black" fill-opacity="0.2"/>
</g>
<g id="Vector_6">
<path d="M67.1298 13.4419L68.9463 4H85.1112L84.0073 9.73786C82.1198 9.73786 78.8449 9.73786 76.5218 9.73786L75.9787 12.5608C77.7454 13.1884 80.5291 13.2261 83.4642 12.5608L82.551 17.3074C82.551 17.3074 76.8221 18.5748 72.0791 18.5748C67.5619 18.5748 66.4653 16.8955 67.1298 13.4419Z" fill="#333333"/>
<path d="M67.1298 13.4419L68.9463 4H85.1112L84.0073 9.73786C82.1198 9.73786 78.8449 9.73786 76.5218 9.73786L75.9787 12.5608C77.7454 13.1884 80.5291 13.2261 83.4642 12.5608L82.551 17.3074C82.551 17.3074 76.8221 18.5748 72.0791 18.5748C67.5619 18.5748 66.4653 16.8955 67.1298 13.4419Z" fill="black" fill-opacity="0.2"/>
<path d="M67.1298 13.4419L68.9463 4H85.1112L84.0073 9.73786C82.1198 9.73786 78.8449 9.73786 76.5218 9.73786L75.9787 12.5608C77.7454 13.1884 80.5291 13.2261 83.4642 12.5608L82.551 17.3074C82.551 17.3074 76.8221 18.5748 72.0791 18.5748C67.5619 18.5748 66.4653 16.8955 67.1298 13.4419Z" fill="black" fill-opacity="0.2"/>
<path d="M67.1298 13.4419L68.9463 4H85.1112L84.0073 9.73786C82.1198 9.73786 78.8449 9.73786 76.5218 9.73786L75.9787 12.5608C77.7454 13.1884 80.5291 13.2261 83.4642 12.5608L82.551 17.3074C82.551 17.3074 76.8221 18.5748 72.0791 18.5748C67.5619 18.5748 66.4653 16.8955 67.1298 13.4419Z" fill="#333333"/>
<path d="M67.1298 13.4419L68.9463 4H85.1112L84.0073 9.73786C82.1198 9.73786 78.8449 9.73786 76.5218 9.73786L75.9787 12.5608C77.7454 13.1884 80.5291 13.2261 83.4642 12.5608L82.551 17.3074C82.551 17.3074 76.8221 18.5748 72.0791 18.5748C67.5619 18.5748 66.4653 16.8955 67.1298 13.4419Z" fill="black" fill-opacity="0.2"/>
<path d="M67.1298 13.4419L68.9463 4H85.1112L84.0073 9.73786C82.1198 9.73786 78.8449 9.73786 76.5218 9.73786L75.9787 12.5608C77.7454 13.1884 80.5291 13.2261 83.4642 12.5608L82.551 17.3074C82.551 17.3074 76.8221 18.5748 72.0791 18.5748C67.5619 18.5748 66.4653 16.8955 67.1298 13.4419Z" fill="black" fill-opacity="0.2"/>
</g>
</g>
<g id="Vector_7">
<path d="M8.2829 19.4873H17.6398C17.14 22.0854 18.6062 23.3528 21.9052 23.4795C25.9462 23.6063 33.47 20.7547 36.9404 19.4873H46.2973C46.2973 19.4873 38.1956 26.9765 31.99 29.0876C27.278 30.6907 19.7776 30.5134 19.7776 30.5134C10.1948 30.5134 5.57052 27.8836 8.2829 19.4873Z" fill="#333333"/>
<path d="M8.2829 19.4873H17.6398C17.14 22.0854 18.6062 23.3528 21.9052 23.4795C25.9462 23.6063 33.47 20.7547 36.9404 19.4873H46.2973C46.2973 19.4873 38.1956 26.9765 31.99 29.0876C27.278 30.6907 19.7776 30.5134 19.7776 30.5134C10.1948 30.5134 5.57052 27.8836 8.2829 19.4873Z" fill="black" fill-opacity="0.2"/>
<path d="M8.2829 19.4873H17.6398C17.14 22.0854 18.6062 23.3528 21.9052 23.4795C25.9462 23.6063 33.47 20.7547 36.9404 19.4873H46.2973C46.2973 19.4873 38.1956 26.9765 31.99 29.0876C27.278 30.6907 19.7776 30.5134 19.7776 30.5134C10.1948 30.5134 5.57052 27.8836 8.2829 19.4873Z" fill="black" fill-opacity="0.2"/>
<path d="M46.2973 19.4873H36.9404C34.2585 27.7252 39.2358 30.5764 48.8187 30.5764C48.8187 30.5764 56.5247 30.841 61.3538 29.1506C67.4725 27.0087 75.3739 19.4873 75.3739 19.4873H66.017C62.5466 20.7547 54.9873 23.6692 50.9463 23.5424C47.6473 23.4157 45.7975 22.0854 46.2973 19.4873Z" fill="#333333"/>
<path d="M46.2973 19.4873H36.9404C34.2585 27.7252 39.2358 30.5764 48.8187 30.5764C48.8187 30.5764 56.5247 30.841 61.3538 29.1506C67.4725 27.0087 75.3739 19.4873 75.3739 19.4873H66.017C62.5466 20.7547 54.9873 23.6692 50.9463 23.5424C47.6473 23.4157 45.7975 22.0854 46.2973 19.4873Z" fill="black" fill-opacity="0.2"/>
<path d="M46.2973 19.4873H36.9404C34.2585 27.7252 39.2358 30.5764 48.8187 30.5764C48.8187 30.5764 56.5247 30.841 61.3538 29.1506C67.4725 27.0087 75.3739 19.4873 75.3739 19.4873H66.017C62.5466 20.7547 54.9873 23.6692 50.9463 23.5424C47.6473 23.4157 45.7975 22.0854 46.2973 19.4873Z" fill="black" fill-opacity="0.2"/>
<path d="M66.017 19.4873H75.3739C74.8741 22.0854 76.3403 23.3528 79.6393 23.4795C83.6803 23.6063 91.2041 21.1344 94.6744 19.8671H104.031C104.031 19.8671 95.8684 27.0455 89.7241 29.0876C85.0058 30.6559 77.5116 30.5134 77.5116 30.5134C67.9288 30.5134 63.3046 27.8836 66.017 19.4873Z" fill="#333333"/>
<path d="M66.017 19.4873H75.3739C74.8741 22.0854 76.3403 23.3528 79.6393 23.4795C83.6803 23.6063 91.2041 21.1344 94.6744 19.8671H104.031C104.031 19.8671 95.8684 27.0455 89.7241 29.0876C85.0058 30.6559 77.5116 30.5134 77.5116 30.5134C67.9288 30.5134 63.3046 27.8836 66.017 19.4873Z" fill="black" fill-opacity="0.2"/>
<path d="M66.017 19.4873H75.3739C74.8741 22.0854 76.3403 23.3528 79.6393 23.4795C83.6803 23.6063 91.2041 21.1344 94.6744 19.8671H104.031C104.031 19.8671 95.8684 27.0455 89.7241 29.0876C85.0058 30.6559 77.5116 30.5134 77.5116 30.5134C67.9288 30.5134 63.3046 27.8836 66.017 19.4873Z" fill="black" fill-opacity="0.2"/>
<path d="M104.031 19.8671H94.6744C91.9925 28.105 96.9699 30.5764 106.553 30.5764C111.683 30.5764 115.118 30.1645 119.088 29.1506L120.435 22.1483C116.965 23.4157 112.721 23.6692 108.68 23.5424C105.381 23.4157 103.532 22.4652 104.031 19.8671Z" fill="#333333"/>
<path d="M104.031 19.8671H94.6744C91.9925 28.105 96.9699 30.5764 106.553 30.5764C111.683 30.5764 115.118 30.1645 119.088 29.1506L120.435 22.1483C116.965 23.4157 112.721 23.6692 108.68 23.5424C105.381 23.4157 103.532 22.4652 104.031 19.8671Z" fill="black" fill-opacity="0.2"/>
<path d="M104.031 19.8671H94.6744C91.9925 28.105 96.9699 30.5764 106.553 30.5764C111.683 30.5764 115.118 30.1645 119.088 29.1506L120.435 22.1483C116.965 23.4157 112.721 23.6692 108.68 23.5424C105.381 23.4157 103.532 22.4652 104.031 19.8671Z" fill="black" fill-opacity="0.2"/>
</g>
<g id="Vector_8">
<path d="M84.6039 10.4953L84.037 13.4419L83.2933 17.3074L82.3058 22.6016C86.3889 21.9073 88.5668 21.1813 91.2656 20.3375L92.4604 14.7727H94.9125L96.3511 7.29517H93.8989L94.5329 4H85.8535L84.7319 9.82991L84.6039 10.4953Z" fill="#333333"/>
<path d="M84.6039 10.4953L84.037 13.4419L83.2933 17.3074L82.3058 22.6016C86.3889 21.9073 88.5668 21.1813 91.2656 20.3375L92.4604 14.7727H94.9125L96.3511 7.29517H93.8989L94.5329 4H85.8535L84.7319 9.82991L84.6039 10.4953Z" fill="black" fill-opacity="0.2"/>
<path d="M84.6039 10.4953L84.037 13.4419L83.2933 17.3074L82.3058 22.6016C86.3889 21.9073 88.5668 21.1813 91.2656 20.3375L92.4604 14.7727H94.9125L96.3511 7.29517H93.8989L94.5329 4H85.8535L84.7319 9.82991L84.6039 10.4953Z" fill="black" fill-opacity="0.2"/>
</g>
<g id="Vector_9">
<path d="M26.849 10.4953L26.2821 13.4419L25.5384 17.3074L24.5509 22.6016C28.6341 21.9073 30.6503 21.1006 33.5107 20.0148L34.7055 14.7727H37.1576L38.5962 7.29517H36.1441L36.778 4H28.0986L26.977 9.82991L26.849 10.4953Z" fill="#333333"/>
<path d="M26.849 10.4953L26.2821 13.4419L25.5384 17.3074L24.5509 22.6016C28.6341 21.9073 30.6503 21.1006 33.5107 20.0148L34.7055 14.7727H37.1576L38.5962 7.29517H36.1441L36.778 4H28.0986L26.977 9.82991L26.849 10.4953Z" fill="black" fill-opacity="0.2"/>
<path d="M26.849 10.4953L26.2821 13.4419L25.5384 17.3074L24.5509 22.6016C28.6341 21.9073 30.6503 21.1006 33.5107 20.0148L34.7055 14.7727H37.1576L38.5962 7.29517H36.1441L36.778 4H28.0986L26.977 9.82991L26.849 10.4953Z" fill="black" fill-opacity="0.2"/>
</g>
</g>
</g>
</svg>
