<svg width="33" height="34" viewBox="0 0 33 34" fill="none" xmlns="http://www.w3.org/2000/svg">
<g id="Vector">
<path d="M16.5012 0C7.38806 0 0 6.65647 0 14.868C0 20.9314 2.60624 23.8268 6.17775 26.4668L6.19508 26.474V33.591C6.19508 33.9261 6.58861 34.1189 6.86582 33.9188L13.1228 29.3912L13.2564 29.449C14.3059 29.6371 15.3899 29.7359 16.4988 29.7359C25.6119 29.7359 33 23.0795 33 14.868C33 6.65647 25.6144 0 16.5012 0ZM10.9695 18.6338C12.5882 18.6338 13.9717 17.6911 14.3875 16.2325H16.7809C16.1968 19.0364 13.9544 20.8759 10.9719 20.8759C7.50439 20.8759 4.75459 18.3565 4.75459 14.8511C4.75459 11.3457 7.50439 8.82627 10.9719 8.82627C13.9866 8.82627 16.2414 10.7019 16.7982 13.554H14.4123C14.0485 12.0038 12.6179 11.0371 10.9719 11.0371C8.64044 11.0371 7.08858 12.6572 7.08858 14.8535C7.08858 17.0498 8.8533 18.6386 10.9719 18.6386M26.7356 20.6493H24.5427V15.8323C24.5427 14.7233 23.8794 14.1278 22.8597 14.1278C21.7211 14.1278 20.991 14.8053 20.991 16.1795V20.6493H18.7981V8.86726H20.991V13.2985C21.5182 12.5198 22.3671 12.1388 23.523 12.1388C24.4586 12.1388 25.2234 12.4378 25.8174 13.0502C26.4287 13.6625 26.7356 14.4895 26.7356 15.5671V20.6493Z" fill="#333333"/>
<path d="M16.5012 0C7.38806 0 0 6.65647 0 14.868C0 20.9314 2.60624 23.8268 6.17775 26.4668L6.19508 26.474V33.591C6.19508 33.9261 6.58861 34.1189 6.86582 33.9188L13.1228 29.3912L13.2564 29.449C14.3059 29.6371 15.3899 29.7359 16.4988 29.7359C25.6119 29.7359 33 23.0795 33 14.868C33 6.65647 25.6144 0 16.5012 0ZM10.9695 18.6338C12.5882 18.6338 13.9717 17.6911 14.3875 16.2325H16.7809C16.1968 19.0364 13.9544 20.8759 10.9719 20.8759C7.50439 20.8759 4.75459 18.3565 4.75459 14.8511C4.75459 11.3457 7.50439 8.82627 10.9719 8.82627C13.9866 8.82627 16.2414 10.7019 16.7982 13.554H14.4123C14.0485 12.0038 12.6179 11.0371 10.9719 11.0371C8.64044 11.0371 7.08858 12.6572 7.08858 14.8535C7.08858 17.0498 8.8533 18.6386 10.9719 18.6386M26.7356 20.6493H24.5427V15.8323C24.5427 14.7233 23.8794 14.1278 22.8597 14.1278C21.7211 14.1278 20.991 14.8053 20.991 16.1795V20.6493H18.7981V8.86726H20.991V13.2985C21.5182 12.5198 22.3671 12.1388 23.523 12.1388C24.4586 12.1388 25.2234 12.4378 25.8174 13.0502C26.4287 13.6625 26.7356 14.4895 26.7356 15.5671V20.6493Z" fill="black" fill-opacity="0.2"/>
<path d="M16.5012 0C7.38806 0 0 6.65647 0 14.868C0 20.9314 2.60624 23.8268 6.17775 26.4668L6.19508 26.474V33.591C6.19508 33.9261 6.58861 34.1189 6.86582 33.9188L13.1228 29.3912L13.2564 29.449C14.3059 29.6371 15.3899 29.7359 16.4988 29.7359C25.6119 29.7359 33 23.0795 33 14.868C33 6.65647 25.6144 0 16.5012 0ZM10.9695 18.6338C12.5882 18.6338 13.9717 17.6911 14.3875 16.2325H16.7809C16.1968 19.0364 13.9544 20.8759 10.9719 20.8759C7.50439 20.8759 4.75459 18.3565 4.75459 14.8511C4.75459 11.3457 7.50439 8.82627 10.9719 8.82627C13.9866 8.82627 16.2414 10.7019 16.7982 13.554H14.4123C14.0485 12.0038 12.6179 11.0371 10.9719 11.0371C8.64044 11.0371 7.08858 12.6572 7.08858 14.8535C7.08858 17.0498 8.8533 18.6386 10.9719 18.6386M26.7356 20.6493H24.5427V15.8323C24.5427 14.7233 23.8794 14.1278 22.8597 14.1278C21.7211 14.1278 20.991 14.8053 20.991 16.1795V20.6493H18.7981V8.86726H20.991V13.2985C21.5182 12.5198 22.3671 12.1388 23.523 12.1388C24.4586 12.1388 25.2234 12.4378 25.8174 13.0502C26.4287 13.6625 26.7356 14.4895 26.7356 15.5671V20.6493Z" fill="black" fill-opacity="0.2"/>
</g>
</svg>
