<svg width="48" height="48" viewBox="0 0 48 48" fill="none" xmlns="http://www.w3.org/2000/svg">
<g id="faq 1">
<g id="faq">
<g id="Group">
<path id="Vector" d="M3.76392 24.4102C2.28003 22.0312 1.5 19.314 1.5 16.5C1.5 8.22949 8.22876 1.5 16.5 1.5C24.7712 1.5 31.5 8.22949 31.5 16.5C31.5 24.7705 24.7712 31.5 16.5 31.5C13.6868 31.5 10.9695 30.7192 8.59058 29.2368L3.59106 31.3784C3.3999 31.4604 3.19922 31.5 3 31.5C2.61035 31.5 2.22656 31.3477 1.93945 31.0605C1.50586 30.627 1.37988 29.9722 1.62158 29.4097L3.76392 24.4102Z" fill="url(#paint0_linear_116_47344)"/>
<g id="Group_2">
<path id="Vector_2" d="M16.5 22.5C17.3284 22.5 18 21.8284 18 21C18 20.1716 17.3284 19.5 16.5 19.5C15.6716 19.5 15 20.1716 15 21C15 21.8284 15.6716 22.5 16.5 22.5Z" fill="url(#paint1_linear_116_47344)"/>
</g>
<g id="Group_3">
<path id="Vector_3" d="M16.5 18C15.6716 18 15 17.3291 15 16.5C15 15.1025 16.054 14.3569 16.752 13.8633C17.595 13.2671 18 12.939 18 12C18 11.1724 17.3269 10.5 16.5 10.5C15.6731 10.5 15 11.1724 15 12C15 12.8291 14.3284 13.5 13.5 13.5C12.6716 13.5 12 12.8291 12 12C12 9.51855 14.0186 7.5 16.5 7.5C18.9814 7.5 21 9.51855 21 12C21 14.5342 19.4246 15.6475 18.4841 16.3125C18.3179 16.4297 18.1025 16.5835 17.989 16.6846C17.8975 17.4258 17.2661 18 16.5 18Z" fill="url(#paint2_linear_116_47344)"/>
</g>
<path id="Vector_4" d="M44.2361 39.4102C45.72 37.0312 46.5 34.314 46.5 31.5C46.5 23.2295 39.7712 16.5 31.5 16.5C23.2288 16.5 16.5 23.2295 16.5 31.5C16.5 39.7705 23.2288 46.5 31.5 46.5C34.3132 46.5 37.0305 45.7192 39.4094 44.2368L44.4089 46.3784C44.6001 46.4604 44.8008 46.5 45 46.5C45.3896 46.5 45.7734 46.3477 46.0605 46.0605C46.4941 45.627 46.6201 44.9722 46.3784 44.4097L44.2361 39.4102Z" fill="url(#paint3_linear_116_47344)"/>
<g id="Group_4">
<path id="Vector_5" d="M30 36C29.6162 36 29.2324 35.8535 28.9395 35.5605L25.9395 32.5605C25.3535 31.9746 25.3535 31.0254 25.9395 30.4395C26.5254 29.8535 27.4746 29.8535 28.0605 30.4395L30 32.3789L34.9395 27.4395C35.5254 26.8535 36.4746 26.8535 37.0605 27.4395C37.6465 28.0254 37.6465 28.9746 37.0605 29.5605L31.0605 35.5605C30.7676 35.8535 30.3838 36 30 36Z" fill="url(#paint4_linear_116_47344)"/>
</g>
</g>
</g>
</g>
<defs>
<linearGradient id="paint0_linear_116_47344" x1="1.5" y1="16.5" x2="31.5" y2="16.5" gradientUnits="userSpaceOnUse">
<stop stop-color="#42A5F5"/>
<stop offset="1" stop-color="#1E88E5"/>
</linearGradient>
<linearGradient id="paint1_linear_116_47344" x1="15" y1="21" x2="18" y2="21" gradientUnits="userSpaceOnUse">
<stop stop-color="#BBDEFB"/>
<stop offset="1" stop-color="#64B5F6"/>
</linearGradient>
<linearGradient id="paint2_linear_116_47344" x1="12" y1="12.75" x2="21" y2="12.75" gradientUnits="userSpaceOnUse">
<stop stop-color="#BBDEFB"/>
<stop offset="1" stop-color="#64B5F6"/>
</linearGradient>
<linearGradient id="paint3_linear_116_47344" x1="16.5" y1="31.5" x2="46.5" y2="31.5" gradientUnits="userSpaceOnUse">
<stop stop-color="#BBDEFB"/>
<stop offset="1" stop-color="#64B5F6"/>
</linearGradient>
<linearGradient id="paint4_linear_116_47344" x1="25.5" y1="31.5" x2="37.5" y2="31.5" gradientUnits="userSpaceOnUse">
<stop stop-color="#42A5F5"/>
<stop offset="1" stop-color="#1E88E5"/>
</linearGradient>
</defs>
</svg>
