<svg width="47" height="22" viewBox="0 0 47 22" fill="none" xmlns="http://www.w3.org/2000/svg">
<rect width="47" height="22" rx="11" fill="#FFCD00"/>
<path d="M13.6426 8.83789C13.6426 9.93164 14.3945 11.0059 15.8008 11.4453L15.2441 12.2949C14.2432 11.9678 13.5156 11.3086 13.1152 10.4688C12.7148 11.3818 11.9678 12.1094 10.918 12.4707L10.3613 11.6113C11.7773 11.1426 12.5391 10 12.5488 8.83789V8.58398H10.6445V7.71484H15.498V8.58398H13.6426V8.83789ZM17.6465 7.05078V13.457H16.5527V7.05078H17.6465ZM17.8906 14.8145V15.6934H11.8066V12.8711H12.9004V14.8145H17.8906ZM26.6844 7.04102V12.5879H25.6492V10.1855H24.7898V12.2949H23.7742V7.2168H24.7898V9.30664H25.6492V7.04102H26.6844ZM23.4812 7.99805V8.84766H19.0867V7.99805H20.7566V7.11914H21.8309V7.99805H23.4812ZM21.2937 9.20898C22.4168 9.20898 23.2078 9.81445 23.2176 10.7324C23.2078 11.6504 22.4168 12.2559 21.2937 12.2559C20.1902 12.2559 19.3895 11.6504 19.3992 10.7324C19.3895 9.81445 20.1902 9.20898 21.2937 9.20898ZM21.2937 9.99023C20.7469 9.99023 20.366 10.2734 20.366 10.7324C20.366 11.1914 20.7371 11.4746 21.2937 11.4746C21.8504 11.4746 22.2312 11.1914 22.2312 10.7324C22.2312 10.2734 21.8504 9.99023 21.2937 9.99023ZM23.7059 12.6953C25.5906 12.6953 26.7234 13.2715 26.7332 14.2871C26.7234 15.2832 25.5906 15.8594 23.7059 15.8594C21.8211 15.8594 20.6785 15.2832 20.6785 14.2871C20.6785 13.2715 21.8211 12.6953 23.7059 12.6953ZM23.7059 13.5254C22.4461 13.5156 21.7625 13.7695 21.7625 14.2871C21.7625 14.7754 22.4461 15.0293 23.7059 15.0293C24.9559 15.0293 25.6395 14.7754 25.6395 14.2871C25.6395 13.7695 24.9559 13.5156 23.7059 13.5254ZM36.025 11.0938V11.9727H32.5289V12.7051C34.1109 12.8125 35.0387 13.3594 35.0484 14.2773C35.0387 15.293 33.8961 15.8594 31.9918 15.8594C30.068 15.8594 28.9156 15.293 28.9156 14.2773C28.9156 13.3594 29.8531 12.8076 31.4547 12.7051V11.9727H27.9781V11.0938H36.025ZM31.9918 13.5254C30.7027 13.5352 30.0094 13.7891 30.0191 14.2773C30.0094 14.7656 30.7027 15.0293 31.9918 15.0293C33.2516 15.0293 33.9547 14.7656 33.9645 14.2773C33.9547 13.7891 33.2516 13.5352 31.9918 13.5254ZM35.3023 7.43164V8.30078H32.7633C32.9342 9.02832 33.9889 9.68262 35.6441 9.83398L35.2633 10.6934C33.6617 10.5322 32.4703 9.89258 31.9918 8.99414C31.5133 9.8877 30.3414 10.5322 28.7398 10.6934L28.3687 9.83398C29.9898 9.68262 31.0445 9.01855 31.2301 8.30078H28.7105V7.43164H35.3023Z" fill="#333333"/>
<path d="M13.6426 8.83789C13.6426 9.93164 14.3945 11.0059 15.8008 11.4453L15.2441 12.2949C14.2432 11.9678 13.5156 11.3086 13.1152 10.4688C12.7148 11.3818 11.9678 12.1094 10.918 12.4707L10.3613 11.6113C11.7773 11.1426 12.5391 10 12.5488 8.83789V8.58398H10.6445V7.71484H15.498V8.58398H13.6426V8.83789ZM17.6465 7.05078V13.457H16.5527V7.05078H17.6465ZM17.8906 14.8145V15.6934H11.8066V12.8711H12.9004V14.8145H17.8906ZM26.6844 7.04102V12.5879H25.6492V10.1855H24.7898V12.2949H23.7742V7.2168H24.7898V9.30664H25.6492V7.04102H26.6844ZM23.4812 7.99805V8.84766H19.0867V7.99805H20.7566V7.11914H21.8309V7.99805H23.4812ZM21.2937 9.20898C22.4168 9.20898 23.2078 9.81445 23.2176 10.7324C23.2078 11.6504 22.4168 12.2559 21.2937 12.2559C20.1902 12.2559 19.3895 11.6504 19.3992 10.7324C19.3895 9.81445 20.1902 9.20898 21.2937 9.20898ZM21.2937 9.99023C20.7469 9.99023 20.366 10.2734 20.366 10.7324C20.366 11.1914 20.7371 11.4746 21.2937 11.4746C21.8504 11.4746 22.2312 11.1914 22.2312 10.7324C22.2312 10.2734 21.8504 9.99023 21.2937 9.99023ZM23.7059 12.6953C25.5906 12.6953 26.7234 13.2715 26.7332 14.2871C26.7234 15.2832 25.5906 15.8594 23.7059 15.8594C21.8211 15.8594 20.6785 15.2832 20.6785 14.2871C20.6785 13.2715 21.8211 12.6953 23.7059 12.6953ZM23.7059 13.5254C22.4461 13.5156 21.7625 13.7695 21.7625 14.2871C21.7625 14.7754 22.4461 15.0293 23.7059 15.0293C24.9559 15.0293 25.6395 14.7754 25.6395 14.2871C25.6395 13.7695 24.9559 13.5156 23.7059 13.5254ZM36.025 11.0938V11.9727H32.5289V12.7051C34.1109 12.8125 35.0387 13.3594 35.0484 14.2773C35.0387 15.293 33.8961 15.8594 31.9918 15.8594C30.068 15.8594 28.9156 15.293 28.9156 14.2773C28.9156 13.3594 29.8531 12.8076 31.4547 12.7051V11.9727H27.9781V11.0938H36.025ZM31.9918 13.5254C30.7027 13.5352 30.0094 13.7891 30.0191 14.2773C30.0094 14.7656 30.7027 15.0293 31.9918 15.0293C33.2516 15.0293 33.9547 14.7656 33.9645 14.2773C33.9547 13.7891 33.2516 13.5352 31.9918 13.5254ZM35.3023 7.43164V8.30078H32.7633C32.9342 9.02832 33.9889 9.68262 35.6441 9.83398L35.2633 10.6934C33.6617 10.5322 32.4703 9.89258 31.9918 8.99414C31.5133 9.8877 30.3414 10.5322 28.7398 10.6934L28.3687 9.83398C29.9898 9.68262 31.0445 9.01855 31.2301 8.30078H28.7105V7.43164H35.3023Z" fill="black" fill-opacity="0.2"/>
<path d="M13.6426 8.83789C13.6426 9.93164 14.3945 11.0059 15.8008 11.4453L15.2441 12.2949C14.2432 11.9678 13.5156 11.3086 13.1152 10.4688C12.7148 11.3818 11.9678 12.1094 10.918 12.4707L10.3613 11.6113C11.7773 11.1426 12.5391 10 12.5488 8.83789V8.58398H10.6445V7.71484H15.498V8.58398H13.6426V8.83789ZM17.6465 7.05078V13.457H16.5527V7.05078H17.6465ZM17.8906 14.8145V15.6934H11.8066V12.8711H12.9004V14.8145H17.8906ZM26.6844 7.04102V12.5879H25.6492V10.1855H24.7898V12.2949H23.7742V7.2168H24.7898V9.30664H25.6492V7.04102H26.6844ZM23.4812 7.99805V8.84766H19.0867V7.99805H20.7566V7.11914H21.8309V7.99805H23.4812ZM21.2937 9.20898C22.4168 9.20898 23.2078 9.81445 23.2176 10.7324C23.2078 11.6504 22.4168 12.2559 21.2937 12.2559C20.1902 12.2559 19.3895 11.6504 19.3992 10.7324C19.3895 9.81445 20.1902 9.20898 21.2937 9.20898ZM21.2937 9.99023C20.7469 9.99023 20.366 10.2734 20.366 10.7324C20.366 11.1914 20.7371 11.4746 21.2937 11.4746C21.8504 11.4746 22.2312 11.1914 22.2312 10.7324C22.2312 10.2734 21.8504 9.99023 21.2937 9.99023ZM23.7059 12.6953C25.5906 12.6953 26.7234 13.2715 26.7332 14.2871C26.7234 15.2832 25.5906 15.8594 23.7059 15.8594C21.8211 15.8594 20.6785 15.2832 20.6785 14.2871C20.6785 13.2715 21.8211 12.6953 23.7059 12.6953ZM23.7059 13.5254C22.4461 13.5156 21.7625 13.7695 21.7625 14.2871C21.7625 14.7754 22.4461 15.0293 23.7059 15.0293C24.9559 15.0293 25.6395 14.7754 25.6395 14.2871C25.6395 13.7695 24.9559 13.5156 23.7059 13.5254ZM36.025 11.0938V11.9727H32.5289V12.7051C34.1109 12.8125 35.0387 13.3594 35.0484 14.2773C35.0387 15.293 33.8961 15.8594 31.9918 15.8594C30.068 15.8594 28.9156 15.293 28.9156 14.2773C28.9156 13.3594 29.8531 12.8076 31.4547 12.7051V11.9727H27.9781V11.0938H36.025ZM31.9918 13.5254C30.7027 13.5352 30.0094 13.7891 30.0191 14.2773C30.0094 14.7656 30.7027 15.0293 31.9918 15.0293C33.2516 15.0293 33.9547 14.7656 33.9645 14.2773C33.9547 13.7891 33.2516 13.5352 31.9918 13.5254ZM35.3023 7.43164V8.30078H32.7633C32.9342 9.02832 33.9889 9.68262 35.6441 9.83398L35.2633 10.6934C33.6617 10.5322 32.4703 9.89258 31.9918 8.99414C31.5133 9.8877 30.3414 10.5322 28.7398 10.6934L28.3687 9.83398C29.9898 9.68262 31.0445 9.01855 31.2301 8.30078H28.7105V7.43164H35.3023Z" fill="black" fill-opacity="0.2"/>
</svg>
