<svg width="32" height="33" viewBox="0 0 32 33" fill="none" xmlns="http://www.w3.org/2000/svg">
<g id="instagram 1" clip-path="url(#clip0_77_781)">
<g id="Group">
<g id="Group_2">
<path id="Vector" d="M24.0004 0.916016H8.00078C3.60128 0.916016 0.000976562 4.51632 0.000976562 8.91582V24.9162C0.000976562 29.3145 3.60128 32.916 8.00078 32.916H24.0004C28.3999 32.916 32.0002 29.3145 32.0002 24.9162V8.91582C32.0002 4.51632 28.3999 0.916016 24.0004 0.916016ZM29.3335 24.9162C29.3335 27.8561 26.942 30.2493 24.0004 30.2493H8.00078C5.06046 30.2493 2.66771 27.8561 2.66771 24.9162V8.91582C2.66771 5.97511 5.06046 3.58275 8.00078 3.58275H24.0004C26.942 3.58275 29.3335 5.97511 29.3335 8.91582V24.9162Z" fill="black"/>
</g>
</g>
<g id="Group_3">
<g id="Group_4">
<path id="Vector_2" d="M24.6679 10.2489C25.7725 10.2489 26.6679 9.35352 26.6679 8.24897C26.6679 7.14443 25.7725 6.24902 24.6679 6.24902C23.5634 6.24902 22.668 7.14443 22.668 8.24897C22.668 9.35352 23.5634 10.2489 24.6679 10.2489Z" fill="black"/>
</g>
</g>
<g id="Group_5">
<g id="Group_6">
<path id="Vector_3" d="M15.9998 8.91602C11.5807 8.91602 8 12.4971 8 16.9158C8 21.3329 11.5807 24.9164 15.9998 24.9164C20.4177 24.9164 23.9996 21.3329 23.9996 16.9158C23.9996 12.4971 20.4177 8.91602 15.9998 8.91602ZM15.9998 22.2497C13.0546 22.2497 10.6667 19.8618 10.6667 16.9158C10.6667 13.9699 13.0546 11.5827 15.9998 11.5827C18.945 11.5827 21.3329 13.9699 21.3329 16.9158C21.3329 19.8618 18.945 22.2497 15.9998 22.2497Z" fill="black"/>
</g>
</g>
</g>
<defs>
<clipPath id="clip0_77_781">
<rect width="32" height="32" fill="white" transform="translate(0 0.916016)"/>
</clipPath>
</defs>
</svg>
