<svg width="32" height="32" viewBox="0 0 32 32" fill="none" xmlns="http://www.w3.org/2000/svg">
<g id="instagram" clip-path="url(#clip0_209_7970)">
<g id="Group">
<g id="Group_2">
<path id="Vector" d="M24.0004 0H8.00078C3.60128 0 0.000976562 3.6003 0.000976562 7.9998V24.0002C0.000976562 28.3985 3.60128 32 8.00078 32H24.0004C28.3999 32 32.0002 28.3985 32.0002 24.0002V7.9998C32.0002 3.6003 28.3999 0 24.0004 0ZM29.3335 24.0002C29.3335 26.9401 26.942 29.3333 24.0004 29.3333H8.00078C5.06046 29.3333 2.66771 26.9401 2.66771 24.0002V7.9998C2.66771 5.0591 5.06046 2.66673 8.00078 2.66673H24.0004C26.942 2.66673 29.3335 5.0591 29.3335 7.9998V24.0002Z" fill="#F7F7F7"/>
</g>
</g>
<g id="Group_3">
<g id="Group_4">
<path id="Vector_2" d="M24.6679 9.33291C25.7725 9.33291 26.6679 8.4375 26.6679 7.33296C26.6679 6.22842 25.7725 5.33301 24.6679 5.33301C23.5634 5.33301 22.668 6.22842 22.668 7.33296C22.668 8.4375 23.5634 9.33291 24.6679 9.33291Z" fill="#F7F7F7"/>
</g>
</g>
<g id="Group_5">
<g id="Group_6">
<path id="Vector_3" d="M15.9998 8C11.5807 8 8 11.5811 8 15.9998C8 20.4169 11.5807 24.0004 15.9998 24.0004C20.4177 24.0004 23.9996 20.4169 23.9996 15.9998C23.9996 11.5811 20.4177 8 15.9998 8ZM15.9998 21.3337C13.0546 21.3337 10.6667 18.9457 10.6667 15.9998C10.6667 13.0539 13.0546 10.6667 15.9998 10.6667C18.945 10.6667 21.3329 13.0539 21.3329 15.9998C21.3329 18.9457 18.945 21.3337 15.9998 21.3337Z" fill="#F7F7F7"/>
</g>
</g>
</g>
<defs>
<clipPath id="clip0_209_7970">
<rect width="32" height="32" fill="white"/>
</clipPath>
</defs>
</svg>
