<svg width="23" height="22" viewBox="0 0 23 22" fill="none" xmlns="http://www.w3.org/2000/svg">
<g id="Frame 39822">
<g id="Group 37">
<path id="Vector" d="M16.2601 10.634C13.1391 10.5607 13.1226 9.12288 12.713 6.28927C12.3035 3.45566 9.99269 1.46692 6.99835 1.26985C6.65524 1.2475 6.31698 1.25524 5.98751 1.29162C3.44086 1.57118 1.38189 3.52988 1.1973 6.03769C0.760229 11.9625 2.35802 17.1471 7.72685 19.805C10.9621 21.4071 14.9014 21.3715 15.7919 21.3715C17.345 21.3715 18.7308 20.7686 19.7147 19.805C20.6649 18.8761 21.2432 17.6137 21.2432 16.2339C21.2432 13.3993 19.2596 10.6372 16.2601 10.634Z" fill="#D21404"/>
<g id="Group 28">
<g id="Group 25">
<ellipse id="Ellipse 139" cx="2.03739" cy="2.65017" rx="2.03739" ry="2.65017" transform="matrix(-1 0 0 1 19.5723 13.2012)" fill="#D21404"/>
<ellipse id="Ellipse 136" cx="1.82842" cy="2.43815" rx="1.82842" ry="2.43815" transform="matrix(-1 0 0 1 19.3633 13.4131)" fill="#F7F7F7"/>
</g>
<path id="Ellipse 141" d="M17.4869 16.0704C16.5944 16.0704 17.2778 17.8791 18.0361 17.8791C18.7944 17.8791 19.4092 17.0963 19.4092 16.1307C19.4092 15.1651 19.3402 14.2367 18.0361 14.3823C17.2778 14.3823 16.6631 15.8293 17.4869 16.0704Z" fill="#D21404"/>
<g id="Group 24">
<ellipse id="Ellipse 139_2" cx="2.03739" cy="2.65017" rx="2.03739" ry="2.65017" transform="matrix(-1 0 0 1 16.542 13.2012)" fill="#D21404"/>
<ellipse id="Ellipse 136_2" cx="1.82842" cy="2.43815" rx="1.82842" ry="2.43815" transform="matrix(-1 0 0 1 16.332 13.4131)" fill="#F7F7F7"/>
</g>
<path id="Ellipse 139_3" d="M14.4566 16.0704C13.5642 16.0704 14.2476 17.8791 15.0059 17.8791C15.7642 17.8791 16.3789 17.0963 16.3789 16.1307C16.3789 15.1651 16.3099 14.2367 15.0059 14.3823C14.2476 14.3823 13.6328 15.8293 14.4566 16.0704Z" fill="#D21404"/>
</g>
</g>
</g>
</svg>
