<svg width="43" height="34" viewBox="0 0 43 34" fill="none" xmlns="http://www.w3.org/2000/svg">
<g clip-path="url(#clip0_3124_49972)">
<path d="M2.27769 32.0083C2.90091 32.2454 3.55586 32.4148 4.20628 32.5593C5.91277 32.9433 7.70538 33.1759 9.4572 33.0946C11.7189 32.9884 14.0078 32.46 15.9546 31.2653C17.7086 30.1858 19.1296 28.6568 20.1607 26.884C21.9534 23.8013 22.699 20.1811 22.9256 16.6625C23.0253 15.0907 22.9936 13.5098 22.8123 11.9448C22.6174 10.251 22.3477 8.5572 21.7856 6.94245C21.4978 6.11363 21.1602 5.29383 20.75 4.51695C20.367 3.79201 19.8775 3.13707 19.354 2.50473C18.4407 1.40489 17.0718 0.490245 15.6622 0.183105C14.6175 -0.0449922 13.7744 -0.02015 12.7365 0.142454C12.1133 0.239564 11.5399 0.49702 10.9688 0.758993C10.3977 1.02097 9.89685 1.43425 9.41867 1.82721C9.11273 2.07789 8.84304 2.36696 8.59602 2.6741C8.1677 3.2116 7.75071 3.74684 7.41757 4.34757C7.06403 4.98443 6.78301 5.66647 6.51786 6.34172C6.13033 7.32638 5.86744 8.36072 5.69294 9.40409C5.45499 10.8156 5.30088 12.2451 5.29408 13.677C5.28728 15.1833 5.44592 16.6716 5.66801 18.1599C6.07367 20.8925 6.96885 23.6003 8.33313 26.0077C9.69742 28.4152 11.83 30.7775 14.3818 32.1777C15.7075 32.9049 17.1761 33.4604 18.6718 33.7156C19.6055 33.8737 20.5528 33.9911 21.5001 34.0047C22.4474 34.0182 23.4196 33.9076 24.3805 33.7743C27.3335 33.3611 30.0847 31.9225 32.2467 29.8989C34.4087 27.8754 35.841 25.3122 36.9061 22.6044C37.9033 20.0659 38.4019 17.3423 38.6126 14.6323C38.803 12.1706 38.6557 9.65252 38.1322 7.23604C37.8874 6.10459 37.4954 5.03186 37.0104 3.97945C36.616 3.12804 36.054 2.2947 35.3741 1.64654C34.9821 1.27391 34.5402 0.908047 34.0506 0.664141C33.2257 0.250856 32.6478 0.0972861 31.7368 0.0159842C31.5192 -0.00434127 31.2994 0.00243389 31.0818 0.020501C30.5153 0.0679271 29.9215 0.13342 29.3708 0.293766C28.2422 0.621232 27.3493 1.17228 26.4473 1.89044C24.9629 3.07158 24.0655 4.78795 23.363 6.50433C22.6604 8.2207 22.3114 10.2284 22.1029 12.1503C21.8944 14.0722 21.9103 15.9241 22.0939 17.7985C22.3001 19.9033 22.6446 22.0127 23.2859 24.0339C23.9749 26.2042 25.3482 28.1261 27.0592 29.6189C28.9629 31.2811 31.1702 32.5638 33.5997 33.291C35.875 33.9708 38.4268 34.1086 40.7157 33.4153C41.4794 33.1849 42.1707 32.6813 42.5786 31.988C42.9865 31.2946 43.1361 30.3416 42.8936 29.5941C42.6511 28.8465 42.182 28.1171 41.4613 27.7377C40.7406 27.3583 39.8727 27.1798 39.0591 27.4238C38.6421 27.5502 38.2183 27.6406 37.7877 27.6993L38.6172 27.5886C37.8194 27.6902 37.0149 27.6767 36.2172 27.5751L37.0466 27.6857C35.9838 27.5412 34.9526 27.2453 33.9645 26.8366L34.7079 27.1505C33.5657 26.6695 32.4892 26.0416 31.5034 25.2896L32.1334 25.7751C31.2858 25.1202 30.513 24.3772 29.8535 23.5348L30.3408 24.1626C29.8921 23.58 29.5023 22.9567 29.2122 22.2792L29.5272 23.0199C29.2076 22.2566 29.0014 21.4345 28.8133 20.6305C28.6116 19.7701 28.453 18.8983 28.3351 18.0221L28.4462 18.8487C28.1244 16.4435 28.0858 13.9909 28.4031 11.5812L28.2921 12.4077C28.4915 10.9262 28.8269 9.45378 29.4071 8.06939L29.0921 8.81014C29.4025 8.07842 29.7833 7.37381 30.266 6.74146L29.7787 7.36929C30.0938 6.96504 30.4473 6.59466 30.8507 6.27849L30.2207 6.76404C30.5425 6.51562 30.8915 6.30785 31.2654 6.14524L30.5221 6.45916C30.9028 6.29881 31.2971 6.19267 31.7051 6.13847L30.8756 6.24913C31.1725 6.213 31.4784 6.19041 31.7753 6.2288L30.9459 6.11814C31.1385 6.14524 31.3266 6.19719 31.5056 6.27171L30.7623 5.9578C30.9685 6.04587 31.1612 6.16331 31.3402 6.30107L30.7102 5.81552C30.9595 6.00974 31.177 6.2401 31.3719 6.48852L30.8847 5.86069C31.2405 6.3214 31.5147 6.83857 31.7413 7.37381L31.4263 6.63305C31.9181 7.8029 32.1946 9.0563 32.3668 10.3097L32.2558 9.48314C32.4824 11.1702 32.5096 12.8843 32.3804 14.5803C32.3419 15.0997 32.2852 15.6169 32.2172 16.1341L32.3283 15.3075C32.1062 16.9426 31.7391 18.5596 31.1974 20.1201C31.0433 20.5673 30.8733 21.0099 30.6875 21.4458L31.0025 20.7051C30.4269 22.0623 29.704 23.3564 28.802 24.5285L29.2892 23.9007C28.6071 24.7814 27.8252 25.5809 26.9437 26.2652L27.5737 25.7796C26.7782 26.3917 25.9102 26.8976 24.9856 27.2883L25.7289 26.9743C24.7567 27.3786 23.7369 27.6451 22.6922 27.7874L23.5216 27.6767C22.3296 27.8325 21.1126 27.837 19.9205 27.6812L20.75 27.7919C19.7324 27.6541 18.7375 27.3899 17.7902 26.9924L18.5336 27.3063C17.6588 26.9337 16.8361 26.4526 16.0815 25.8745L16.7115 26.3601C15.8526 25.6983 15.0911 24.9192 14.4271 24.0655L14.9144 24.6934C14.0577 23.5822 13.3688 22.3537 12.8203 21.0641L13.1353 21.8049C12.3807 20.0208 11.8957 18.1305 11.6328 16.2131L11.7439 17.0397C11.5263 15.4249 11.4651 13.7854 11.5829 12.1593C11.6147 11.7235 11.66 11.2876 11.7189 10.854L11.6079 11.6805C11.7937 10.3233 12.111 8.97726 12.6458 7.71256L12.3308 8.45331C12.6254 7.76451 12.9835 7.1028 13.4413 6.50884L12.954 7.13667C13.2441 6.76404 13.5727 6.42077 13.9467 6.13169L13.3166 6.61725C13.5977 6.4027 13.8991 6.22203 14.2231 6.08201L13.4798 6.39592C13.7835 6.26945 14.1008 6.18138 14.4271 6.13621L13.5977 6.24687C13.9127 6.20622 14.2299 6.2017 14.5472 6.24235L13.7178 6.13169C14.0237 6.17234 14.3183 6.25365 14.6039 6.37108L13.8605 6.05717C14.1733 6.19041 14.4634 6.36205 14.7331 6.56756L14.103 6.08201C14.4792 6.37334 14.8078 6.71661 15.0979 7.09151L14.6107 6.46368C15.0957 7.09377 15.4719 7.79838 15.7801 8.52784L15.4651 7.78709C16.0701 9.22568 16.4214 10.7614 16.6344 12.3039L16.5234 11.4773C16.8361 13.7944 16.8271 16.1567 16.5211 18.4738L16.6322 17.6472C16.3874 19.4584 15.9591 21.2516 15.2475 22.9386L15.5625 22.1978C15.1455 23.178 14.6311 24.1175 13.9784 24.9644L14.4656 24.3365C14.0169 24.9124 13.507 25.4319 12.9314 25.8835L13.5614 25.398C12.9699 25.8542 12.324 26.2268 11.6373 26.5204L12.3807 26.2065C11.5286 26.5611 10.6357 26.7891 9.72009 26.9134L10.5495 26.8027C9.2623 26.9698 7.95694 26.9359 6.6697 26.7688L7.49915 26.8795C6.3003 26.7191 5.07199 26.4685 3.93886 26.0348C3.22725 25.7638 2.17118 25.9784 1.53662 26.3488C0.902071 26.7191 0.274317 27.4644 0.104348 28.2052C-0.076953 29.0001 -0.0384266 29.8922 0.419358 30.599L0.906603 31.2269C1.2964 31.6108 1.75418 31.8773 2.28222 32.0263L2.27769 32.0083Z" fill="#FF477E"/>
</g>
<defs>
<clipPath id="clip0_3124_49972">
<rect width="43" height="34" fill="white"/>
</clipPath>
</defs>
</svg>
