<svg width="217" height="103" viewBox="0 0 217 103" fill="none" xmlns="http://www.w3.org/2000/svg">
<path d="M1 22.8013C1 20.1591 3.02741 17.9763 5.66523 17.8252C20.835 16.9559 70.0053 14.3203 108.5 14.3203C146.995 14.3203 196.165 16.9559 211.335 17.8252C213.973 17.9763 216 20.1591 216 22.8013V90.98C216 93.5979 214.007 95.7689 211.395 95.9494C196.297 96.9928 147.057 100.177 108.5 100.177C69.9433 100.177 20.703 96.9928 5.60514 95.9494C2.99346 95.7689 1 93.5979 1 90.98V22.8013Z" fill="#D21404"/>
<path d="M2.92578 24.5619C2.92578 21.9165 4.95569 19.7322 7.59697 19.5851C22.5981 18.7498 70.7706 16.2422 108.5 16.2422C146.23 16.2422 194.403 18.7498 209.404 19.5851C212.045 19.7322 214.075 21.9165 214.075 24.5619V89.252C214.075 91.8738 212.079 94.0465 209.463 94.2222C194.531 95.225 146.291 98.2548 108.5 98.2548C70.7101 98.2548 22.4696 95.225 7.53799 94.2222C4.92209 94.0465 2.92578 91.8738 2.92578 89.252V24.5619Z" fill="#F7F7F7"/>
<path d="M5.2793 26.1253C5.2793 23.4775 7.31114 21.2922 9.955 21.1482C24.7543 20.342 71.7673 17.9502 108.608 17.9502C145.448 17.9502 192.461 20.342 207.26 21.1482C209.904 21.2922 211.936 23.4775 211.936 26.1253V87.7172C211.936 90.3418 209.938 92.5158 207.319 92.6879C192.587 93.6557 145.507 96.5456 108.608 96.5456C71.7081 96.5456 24.6285 93.6557 9.89664 92.6879C7.27761 92.5158 5.2793 90.3418 5.2793 87.7171V26.1253Z" fill="#D21404"/>
<path d="M11.4824 31.8021C11.4824 29.1426 13.5335 26.9515 16.1899 26.8223C30.4389 26.1288 74.2336 24.1436 108.607 24.1436C142.98 24.1436 186.775 26.1288 201.024 26.8223C203.68 26.9515 205.731 29.1426 205.731 31.8021V82.1461C205.731 84.7848 203.712 86.9657 201.078 87.1203C186.887 87.9532 143.033 90.3516 108.607 90.3516C74.1802 90.3516 30.3262 87.9532 16.1358 87.1203C13.5016 86.9657 11.4824 84.7848 11.4824 82.1461V31.8021Z" fill="#F7F7F7"/>
<path d="M94.2675 63.7196L98.972 39.7344H108.77L107.768 44.9356H110.592L108.684 54.8348H105.86L104.429 60.5506C100.541 62.2665 97.8671 63.1208 94.2675 63.7196Z" fill="#D21404"/>
<path d="M70.4829 57.3516L71.6939 51.0677C72.7132 50.7021 73.8499 49.7272 74.4355 47.3305H72.4141L73.8779 39.7344H98.0521L96.5882 47.3305H94.5668C94.2366 49.6865 94.9897 50.7021 95.868 51.0677L94.6571 57.3516C92.8832 57.3516 90.0024 56.6734 89.0524 54.9673L88.0452 55.6985C88.7549 56.5109 89.8717 57.3516 89.8717 57.3516C89.8717 57.3516 85.0549 59.5194 82.2879 59.0294C79.4535 58.5274 78.3478 56.9983 76.6765 54.9673L75.6693 55.6985C76.3044 56.4703 77.9084 57.3516 77.9084 57.3516C77.9084 57.3516 72.181 59.0294 70.4829 57.3516ZM85.945 47.3305H83.016C82.8914 48.8335 83.3814 49.9303 83.924 50.5396C84.7584 49.849 85.5316 48.8335 85.945 47.3305Z" fill="#D21404"/>
<path d="M170.827 64.3603L175.531 39.7344H185.329L184.327 44.9356H187.151L185.243 54.8348H182.419L180.989 62.2592C177.759 63.4756 174.454 64.3603 170.827 64.3603Z" fill="#D21404"/>
<path d="M147.043 57.3516L148.253 51.0677C149.273 50.7021 150.409 49.7272 150.995 47.3305H148.974L150.438 39.7344H174.612L173.148 47.3305H171.126C170.796 49.6865 171.549 50.7021 172.428 51.0677L171.217 57.3516C169.443 57.3516 166.562 56.6734 165.612 54.9673L164.605 55.6985C165.314 56.5109 166.431 57.3516 166.431 57.3516C166.431 57.3516 161.615 59.5194 158.847 59.0294C156.013 58.5274 154.907 56.9983 153.236 54.9673L152.229 55.6985C152.864 56.4703 154.468 57.3516 154.468 57.3516C154.468 57.3516 148.741 59.0294 147.043 57.3516ZM162.505 47.3305H159.576C159.451 48.8335 159.941 49.9303 160.484 50.5396C161.318 49.849 162.091 48.8335 162.505 47.3305Z" fill="#D21404"/>
<path d="M32.8959 52.2342L35.3047 39.7344H56.7405L55.2767 47.3305C52.7737 47.3305 48.4309 47.3305 45.3503 47.3305L44.6301 51.0677C46.973 51.8986 50.6643 51.9485 54.5565 51.0677L53.3455 57.3516C53.3455 57.3516 45.7485 59.0294 39.459 59.0294C33.4689 59.0294 32.0148 56.8063 32.8959 52.2342Z" fill="#D21404"/>
<path d="M32.8959 52.2342L35.3047 39.7344H56.7405L55.2767 47.3305C52.7737 47.3305 48.4309 47.3305 45.3503 47.3305L44.6301 51.0677C46.973 51.8986 50.6643 51.9485 54.5565 51.0677L53.3455 57.3516C53.3455 57.3516 45.7485 59.0294 39.459 59.0294C33.4689 59.0294 32.0148 56.8063 32.8959 52.2342Z" fill="#D21404"/>
<path d="M110.086 52.2342L112.495 39.7344H133.931L132.467 47.3305C129.964 47.3305 125.621 47.3305 122.541 47.3305L121.821 51.0677C124.163 51.8986 127.855 51.9485 131.747 51.0677L130.536 57.3516C130.536 57.3516 122.939 59.0294 116.649 59.0294C110.659 59.0294 109.205 56.8063 110.086 52.2342Z" fill="#D21404"/>
<path d="M110.086 52.2342L112.495 39.7344H133.931L132.467 47.3305C129.964 47.3305 125.621 47.3305 122.541 47.3305L121.821 51.0677C124.163 51.8986 127.855 51.9485 131.747 51.0677L130.536 57.3516C130.536 57.3516 122.939 59.0294 116.649 59.0294C110.659 59.0294 109.205 56.8063 110.086 52.2342Z" fill="#D21404"/>
<path d="M32.0513 60.2383H44.4592C43.7964 63.6778 45.7407 65.3557 50.1154 65.5234C55.4741 65.6912 65.4511 61.9161 70.0531 60.2383H82.461C82.461 60.2383 71.7176 70.1529 63.4886 72.9478C57.2401 75.0701 47.294 74.8354 47.294 74.8354C34.5865 74.8354 28.4545 71.3539 32.0513 60.2383Z" fill="#D21404"/>
<path d="M82.461 60.2383H70.0531C66.4967 71.1442 73.097 74.9187 85.8045 74.9187C85.8045 74.9187 96.0233 75.269 102.427 73.0311C110.541 70.1956 121.019 60.2383 121.019 60.2383H108.611C104.009 61.9161 93.9845 65.7745 88.6258 65.6067C84.2512 65.439 81.7982 63.6778 82.461 60.2383Z" fill="#D21404"/>
<path d="M108.611 60.2383H121.019C120.356 63.6778 122.3 65.3557 126.675 65.5234C132.033 65.6912 142.01 62.4189 146.612 60.741H159.02C159.02 60.741 148.196 70.2443 140.048 72.9478C133.791 75.024 123.853 74.8354 123.853 74.8354C111.146 74.8354 105.014 71.3539 108.611 60.2383Z" fill="#D21404"/>
<path d="M159.02 60.741H146.612C143.056 71.6469 149.656 74.9187 162.364 74.9187C169.167 74.9187 173.722 74.3734 178.986 73.0311L180.773 63.7611C176.171 65.439 170.544 65.7745 165.185 65.6067C160.811 65.439 158.358 64.1806 159.02 60.741Z" fill="#D21404"/>
<path d="M133.259 48.3332L132.507 52.2342L131.521 57.3516L130.212 64.3603C135.626 63.4411 138.514 62.48 142.093 61.3629L143.677 53.9959H146.929L148.837 44.0967H145.585L146.425 39.7344H134.916L133.429 47.4524L133.259 48.3332Z" fill="#D21404"/>
<path d="M56.672 48.3332L55.9203 52.2342L54.9341 57.3516L53.6246 64.3603C59.0391 63.4411 61.7128 62.3733 65.5059 60.9358L67.0902 53.9959H70.342L72.2496 44.0967H68.9979L69.8386 39.7344H58.3291L56.8418 47.4524L56.672 48.3332Z" fill="#D21404"/>
<path d="M102.195 2.02079L102.196 2.02083C107.159 2.34228 111.112 5.61975 111.812 10.3852C111.849 10.6364 111.883 10.8766 111.916 11.1066C112.026 11.8751 112.12 12.5318 112.24 13.119C112.396 13.8765 112.576 14.4091 112.821 14.7998C113.233 15.457 113.996 15.9794 116.23 16.0326C121.486 16.045 124.796 20.7837 124.796 25.413C124.796 27.7706 123.79 29.9141 122.165 31.4779L121.471 30.7572L122.165 31.4773C120.481 33.1 118.125 34.1016 115.505 34.1016C115.474 34.1016 115.441 34.1017 115.405 34.1017C113.882 34.1033 107.836 34.1097 102.801 31.6562C94.1207 27.4278 91.6299 19.163 92.3109 10.0794C92.6321 5.78594 96.195 2.52091 100.486 2.05717L102.195 2.02079ZM102.195 2.02079C101.617 1.98374 101.045 1.99643 100.486 2.0571L102.195 2.02079Z" fill="#D21404" stroke="#F7F7F7" stroke-width="2"/>
<ellipse cx="3.09868" cy="3.96606" rx="3.09868" ry="3.96606" transform="matrix(-1 0 0 1 121.254 20.875)" fill="#D21404"/>
<ellipse cx="2.78087" cy="3.64878" rx="2.78087" ry="3.64878" transform="matrix(-1 0 0 1 120.937 21.1924)" fill="#F7F7F7"/>
<path d="M118.082 25.1681C116.725 25.1681 117.764 27.8748 118.918 27.8748C120.071 27.8748 121.006 26.7033 121.006 25.2583C121.006 23.8133 120.901 22.4238 118.918 22.6418C117.764 22.6418 116.829 24.8072 118.082 25.1681Z" fill="#D21404"/>
<ellipse cx="3.09868" cy="3.96606" rx="3.09868" ry="3.96606" transform="matrix(-1 0 0 1 116.645 20.875)" fill="#D21404"/>
<ellipse cx="2.78087" cy="3.64878" rx="2.78087" ry="3.64878" transform="matrix(-1 0 0 1 116.327 21.1924)" fill="#F7F7F7"/>
<path d="M113.475 25.1681C112.117 25.1681 113.157 27.8748 114.31 27.8748C115.463 27.8748 116.398 26.7033 116.398 25.2583C116.398 23.8133 116.294 22.4238 114.31 22.6418C113.157 22.6418 112.222 24.8072 113.475 25.1681Z" fill="#D21404"/>
</svg>
