<svg xmlns="http://www.w3.org/2000/svg" width="110" height="47" viewBox="0 0 110 47" fill="none">
<path d="M5 13.6943C5 11.0516 7.05154 8.86765 9.69029 8.72369C18.6753 8.23347 38.8561 7.24121 55 7.24121C71.1439 7.24121 91.3247 8.23347 100.31 8.72369C102.948 8.86765 105 11.0516 105 13.6943V40.2461C105 42.8646 102.987 45.0367 100.374 45.2087C91.4227 45.798 71.1871 46.9995 55 46.9995C38.8129 46.9995 18.5773 45.798 9.62575 45.2087C7.01287 45.0367 5 42.8646 5 40.2461V13.6943Z" fill="#D21404"/>
<path d="M5.896 14.5134C5.896 11.8676 7.95702 9.6818 10.5992 9.54182C19.4708 9.07179 39.2035 8.13086 55.0005 8.13086C70.7974 8.13086 90.5301 9.07179 99.4017 9.54182C102.044 9.6818 104.105 11.8676 104.105 14.5134V39.4406C104.105 42.063 102.082 44.2372 99.4651 44.4045C90.6255 44.9696 70.8395 46.1089 55.0005 46.1089C39.1614 46.1089 19.3755 44.9696 10.5358 44.4045C7.91877 44.2372 5.896 42.063 5.896 39.4406V14.5134Z" fill="white"/>
<path d="M6.99023 15.2407C6.99023 12.5924 9.05102 10.4057 11.6957 10.2687C20.4272 9.81656 39.6496 8.92188 55.0499 8.92188C70.4503 8.92188 89.6727 9.81656 98.4042 10.2687C101.049 10.4057 103.11 12.5924 103.11 15.2406V38.7262C103.11 41.3514 101.081 43.5272 98.4608 43.6909C89.7571 44.2347 70.488 45.3175 55.0499 45.3175C39.6119 45.3175 20.3428 44.2347 11.6391 43.6909C9.01891 43.5272 6.99023 41.3514 6.99023 38.7262V15.2407Z" fill="#D21404"/>
<path d="M9.87549 17.8849C9.87549 15.225 11.9462 13.0332 14.6033 12.9105C22.9462 12.5254 40.7506 11.79 55.0496 11.79C69.3487 11.79 87.153 12.5254 95.4959 12.9105C98.153 13.0332 100.224 15.225 100.224 17.8849V36.1283C100.224 38.7675 98.1834 40.9495 95.5482 41.0962C87.2287 41.5595 69.3826 42.4494 55.0496 42.4494C40.7167 42.4494 22.8705 41.5595 14.551 41.0962C11.9158 40.9495 9.87549 38.7675 9.87549 36.1283V17.8849Z" fill="white"/>
<path d="M48.3799 30.1177L50.5681 19.0107H55.1253L54.6591 21.4193H55.9725L55.0852 26.0034H53.7718L53.1063 28.6502C51.298 29.4448 50.0542 29.8404 48.3799 30.1177Z" fill="#D21404"/>
<path d="M37.3179 27.1688L37.8811 24.2589C38.3552 24.0896 38.8839 23.6382 39.1563 22.5283H38.2161L38.897 19.0107H50.1408L49.4599 22.5283H48.5197C48.3661 23.6193 48.7164 24.0896 49.1249 24.2589L48.5617 27.1688C47.7366 27.1688 46.3967 26.8548 45.9549 26.0647L45.4864 26.4033C45.8165 26.7795 46.336 27.1688 46.336 27.1688C46.336 27.1688 44.0956 28.1727 42.8086 27.9458C41.4903 27.7133 40.976 27.0053 40.1987 26.0647L39.7302 26.4033C40.0256 26.7607 40.7716 27.1688 40.7716 27.1688C40.7716 27.1688 38.1077 27.9458 37.3179 27.1688ZM44.5096 22.5283H43.1473C43.0893 23.2243 43.3172 23.7322 43.5696 24.0144C43.9576 23.6946 44.3173 23.2243 44.5096 22.5283Z" fill="#D21404"/>
<path d="M83.9891 30.4144L86.1772 19.0107H90.7345L90.2683 21.4193H91.5817L90.6944 26.0034H89.381L88.7155 29.4414C87.2134 30.0047 85.6762 30.4144 83.9891 30.4144Z" fill="#D21404"/>
<path d="M72.9268 27.1688L73.49 24.2589C73.9641 24.0896 74.4928 23.6382 74.7652 22.5283H73.825L74.5059 19.0107H85.7496L85.0688 22.5283H84.1286C83.975 23.6193 84.3253 24.0896 84.7338 24.2589L84.1706 27.1688C83.3455 27.1688 82.0056 26.8548 81.5637 26.0647L81.0953 26.4033C81.4254 26.7795 81.9448 27.1688 81.9448 27.1688C81.9448 27.1688 79.7045 28.1727 78.4175 27.9458C77.0992 27.7133 76.5849 27.0053 75.8075 26.0647L75.3391 26.4033C75.6345 26.7607 76.3805 27.1688 76.3805 27.1688C76.3805 27.1688 73.7166 27.9458 72.9268 27.1688ZM80.1184 22.5283H78.7561C78.6982 23.2243 78.9261 23.7322 79.1784 24.0144C79.5665 23.6946 79.9262 23.2243 80.1184 22.5283Z" fill="#D21404"/>
<path d="M19.8352 24.7991L20.9556 19.0107H30.9257L30.2449 22.5283C29.0807 22.5283 27.0608 22.5283 25.6279 22.5283L25.293 24.2589C26.3827 24.6437 28.0996 24.6668 29.9099 24.2589L29.3466 27.1688C29.3466 27.1688 25.8132 27.9458 22.8878 27.9458C20.1017 27.9458 19.4254 26.9163 19.8352 24.7991Z" fill="#D21404"/>
<path d="M19.8352 24.7991L20.9556 19.0107H30.9257L30.2449 22.5283C29.0807 22.5283 27.0608 22.5283 25.6279 22.5283L25.293 24.2589C26.3827 24.6437 28.0996 24.6668 29.9099 24.2589L29.3466 27.1688C29.3466 27.1688 25.8132 27.9458 22.8878 27.9458C20.1017 27.9458 19.4254 26.9163 19.8352 24.7991Z" fill="#D21404"/>
<path d="M55.738 24.7991L56.8584 19.0107H66.8285L66.1477 22.5283C64.9835 22.5283 62.9636 22.5283 61.5308 22.5283L61.1958 24.2589C62.2855 24.6437 64.0024 24.6668 65.8127 24.2589L65.2495 27.1688C65.2495 27.1688 61.716 27.9458 58.7906 27.9458C56.0046 27.9458 55.3282 26.9163 55.738 24.7991Z" fill="#D21404"/>
<path d="M55.738 24.7991L56.8584 19.0107H66.8285L66.1477 22.5283C64.9835 22.5283 62.9636 22.5283 61.5308 22.5283L61.1958 24.2589C62.2855 24.6437 64.0024 24.6668 65.8127 24.2589L65.2495 27.1688C65.2495 27.1688 61.716 27.9458 58.7906 27.9458C56.0046 27.9458 55.3282 26.9163 55.738 24.7991Z" fill="#D21404"/>
<path d="M19.4427 28.5059H25.2138C24.9055 30.0986 25.8099 30.8756 27.8446 30.9533C30.337 31.031 34.9775 29.2828 37.1179 28.5059H42.8891C42.8891 28.5059 37.8921 33.0971 34.0647 34.3913C31.1584 35.3741 26.5323 35.2654 26.5323 35.2654C20.6219 35.2654 17.7698 33.6532 19.4427 28.5059Z" fill="#D21404"/>
<path d="M42.8891 28.5059H37.1179C35.4638 33.5561 38.5337 35.304 44.4442 35.304C44.4442 35.304 49.1971 35.4662 52.1756 34.4299C55.9494 33.1169 60.8228 28.5059 60.8228 28.5059H55.0517C52.9113 29.2828 48.2489 31.0696 45.7565 30.9919C43.7217 30.9142 42.5808 30.0986 42.8891 28.5059Z" fill="#D21404"/>
<path d="M55.0517 28.5059H60.8228C60.5146 30.0986 61.4189 30.8756 63.4536 30.9533C65.946 31.031 70.5865 29.5156 72.727 28.7387H78.4981C78.4981 28.7387 73.4633 33.1394 69.6737 34.3913C66.7635 35.3527 62.1413 35.2654 62.1413 35.2654C56.2309 35.2654 53.3788 33.6532 55.0517 28.5059Z" fill="#D21404"/>
<path d="M78.4981 28.7387H72.727C71.0728 33.7889 74.1427 35.304 80.0532 35.304C83.2174 35.304 85.3359 35.0515 87.7846 34.4299L88.6155 30.1372C86.475 30.9142 83.8579 31.0696 81.3655 30.9919C79.3307 30.9142 78.1898 30.3314 78.4981 28.7387Z" fill="#D21404"/>
<path d="M66.5159 22.9927L66.1662 24.7991L65.7076 27.1688L65.0985 30.4144C67.6169 29.9888 68.9601 29.5437 70.6247 29.0264L71.3616 25.6149H72.874L73.7613 21.0308H72.2488L72.6399 19.0107H67.2866L66.5948 22.5848L66.5159 22.9927Z" fill="#D21404"/>
<path d="M30.8938 22.9927L30.5442 24.7991L30.0855 27.1688L29.4764 30.4144C31.9948 29.9888 33.2384 29.4943 35.0026 28.8286L35.7395 25.6149H37.2519L38.1392 21.0308H36.6268L37.0178 19.0107H31.6646L30.9728 22.5848L30.8938 22.9927Z" fill="#D21404"/>
<path d="M52.1015 1.01071L52.1021 1.01075C54.6268 1.17353 56.7021 2.85012 57.0697 5.34123C57.0879 5.46472 57.1045 5.58032 57.1201 5.68929C57.1706 6.04043 57.2111 6.32261 57.2636 6.57708C57.3311 6.90488 57.3992 7.07745 57.4621 7.17752L57.4639 7.18036C57.5142 7.26051 57.6486 7.47475 58.6026 7.49816C61.414 7.50821 63.1146 10.0229 63.1146 12.3789C63.1146 13.629 62.5783 14.7584 61.7256 15.5753C60.8419 16.4232 59.6129 16.9393 58.2584 16.9393C58.2423 16.9393 58.2246 16.9393 58.2053 16.9394C57.489 16.9404 54.5724 16.9447 52.1168 15.7534L52.1015 1.01071ZM52.1015 1.01071C51.8027 0.991647 51.5063 0.998109 51.2158 1.0295L52.1015 1.01071ZM47.7874 11.3333C46.9828 9.49533 46.7746 7.39416 46.9369 5.23791L47.7874 11.3333ZM47.7874 11.3333C48.6017 13.1934 50.004 14.7288 52.1167 15.7534L47.7874 11.3333ZM51.2152 1.02956C48.9996 1.26812 47.1084 2.95646 46.9369 5.23774L51.2152 1.02956Z" fill="#D21404" stroke="white" stroke-width="2"/>
<ellipse cx="1.44125" cy="1.83659" rx="1.44125" ry="1.83659" transform="matrix(-1 0 0 1 60.9321 10.2773)" fill="#D21404"/>
<ellipse cx="1.29343" cy="1.68966" rx="1.29343" ry="1.68966" transform="matrix(-1 0 0 1 60.7837 10.4248)" fill="white"/>
<path d="M59.4571 12.2653C58.8258 12.2653 59.3092 13.5187 59.8456 13.5187C60.382 13.5187 60.8169 12.9763 60.8169 12.3071C60.8169 11.6379 60.7681 10.9945 59.8456 11.0955C59.3092 11.0955 58.8743 12.0982 59.4571 12.2653Z" fill="#D21404"/>
<ellipse cx="1.44125" cy="1.83659" rx="1.44125" ry="1.83659" transform="matrix(-1 0 0 1 58.7886 10.2773)" fill="#D21404"/>
<ellipse cx="1.29343" cy="1.68966" rx="1.29343" ry="1.68966" transform="matrix(-1 0 0 1 58.6406 10.4248)" fill="white"/>
<path d="M57.314 12.2653C56.6827 12.2653 57.1661 13.5187 57.7025 13.5187C58.239 13.5187 58.6738 12.9763 58.6738 12.3071C58.6738 11.6379 58.625 10.9945 57.7025 11.0955C57.1661 11.0955 56.7312 12.0982 57.314 12.2653Z" fill="#D21404"/>
</svg>