<svg width="80" height="20" viewBox="0 0 80 20" fill="none" xmlns="http://www.w3.org/2000/svg">
<path d="M33.7001 12.5686L35.7696 2H40.0797L39.6388 4.29182H40.881L40.0418 8.65368H38.7996L38.1702 11.1722C36.4599 11.9283 35.2836 12.3047 33.7001 12.5686Z" fill="#FFA500"/>
<path d="M23.2375 9.76263L23.7702 6.99376C24.2186 6.83267 24.7186 6.4031 24.9762 5.34708H24.087L24.731 2H35.365L34.7211 5.34708H33.8319C33.6866 6.38521 34.0179 6.83267 34.4043 6.99376L33.8716 9.76263C33.0913 9.76263 31.8241 9.4638 31.4061 8.71205L30.9631 9.03422C31.2753 9.3922 31.7666 9.76263 31.7666 9.76263C31.7666 9.76263 29.6477 10.7179 28.4305 10.5019C27.1836 10.2807 26.6972 9.60699 25.9621 8.71205L25.519 9.03422C25.7984 9.3743 26.504 9.76263 26.504 9.76263C26.504 9.76263 23.9845 10.5019 23.2375 9.76263ZM30.0392 5.34708H28.7508C28.6959 6.00933 28.9115 6.4926 29.1502 6.76108C29.5172 6.4568 29.8573 6.00933 30.0392 5.34708Z" fill="#FFA500"/>
<path d="M67.3783 12.8509L69.4478 2H73.7579L73.3169 4.29182H74.5591L73.72 8.65368H72.4778L71.8484 11.9251C70.4278 12.4611 68.9739 12.8509 67.3783 12.8509Z" fill="#FFA500"/>
<path d="M56.9162 9.76263L57.4489 6.99376C57.8973 6.83267 58.3973 6.4031 58.6549 5.34708H57.7657L58.4097 2H69.0438L68.3998 5.34708H67.5106C67.3653 6.38521 67.6966 6.83267 68.083 6.99376L67.5503 9.76263C66.77 9.76263 65.5028 9.4638 65.0848 8.71205L64.6418 9.03422C64.954 9.3922 65.4453 9.76263 65.4453 9.76263C65.4453 9.76263 63.3264 10.7179 62.1092 10.5019C60.8623 10.2807 60.3759 9.60699 59.6408 8.71205L59.1977 9.03422C59.4771 9.3743 60.1827 9.76263 60.1827 9.76263C60.1827 9.76263 57.6632 10.5019 56.9162 9.76263ZM63.7179 5.34708H62.4295C62.3747 6.00933 62.5902 6.4926 62.8289 6.76108C63.1959 6.4568 63.5361 6.00933 63.7179 5.34708Z" fill="#FFA500"/>
<path d="M6.70257 7.50777L7.76221 2H17.1917L16.5478 5.34708C15.4467 5.34708 13.5364 5.34708 12.1812 5.34708L11.8644 6.99376C12.895 7.35991 14.5188 7.38189 16.231 6.99376L15.6983 9.76263C15.6983 9.76263 12.3564 10.5019 9.58967 10.5019C6.95467 10.5019 6.31499 9.52236 6.70257 7.50777Z" fill="#FFA500"/>
<path d="M6.70257 7.50777L7.76221 2H17.1917L16.5478 5.34708C15.4467 5.34708 13.5364 5.34708 12.1812 5.34708L11.8644 6.99376C12.895 7.35991 14.5188 7.38189 16.231 6.99376L15.6983 9.76263C15.6983 9.76263 12.3564 10.5019 9.58967 10.5019C6.95467 10.5019 6.31499 9.52236 6.70257 7.50777Z" fill="#FFA500"/>
<path d="M40.6596 7.50777L41.7192 2H51.1488L50.5048 5.34708C49.4038 5.34708 47.4934 5.34708 46.1383 5.34708L45.8214 6.99376C46.8521 7.35991 48.4759 7.38189 50.188 6.99376L49.6553 9.76263C49.6553 9.76263 46.3134 10.5019 43.5467 10.5019C40.9117 10.5019 40.272 9.52236 40.6596 7.50777Z" fill="#FFA500"/>
<path d="M40.6596 7.50777L41.7192 2H51.1488L50.5048 5.34708C49.4038 5.34708 47.4934 5.34708 46.1383 5.34708L45.8214 6.99376C46.8521 7.35991 48.4759 7.38189 50.188 6.99376L49.6553 9.76263C49.6553 9.76263 46.3134 10.5019 43.5467 10.5019C40.9117 10.5019 40.272 9.52236 40.6596 7.50777Z" fill="#FFA500"/>
<path d="M6.33136 11.0342H11.7896C11.498 12.5497 12.3533 13.289 14.2777 13.363C16.6349 13.4369 21.0238 11.7735 23.0482 11.0342H28.5064C28.5064 11.0342 23.7804 15.4029 20.1605 16.6344C17.4118 17.5695 13.0366 17.4661 13.0366 17.4661C7.44662 17.4661 4.74915 15.932 6.33136 11.0342Z" fill="#FFA500"/>
<path d="M28.5064 11.0342H23.0482C21.4837 15.8396 24.3872 17.5028 29.9772 17.5028C29.9772 17.5028 34.4723 17.6571 37.2893 16.6711C40.8585 15.4217 45.4677 11.0342 45.4677 11.0342H40.0095C37.9851 11.7735 33.5755 13.4736 31.2183 13.3997C29.2939 13.3257 28.2148 12.5497 28.5064 11.0342Z" fill="#FFA500"/>
<path d="M40.0095 11.0342H45.4677C45.1761 12.5497 46.0314 13.289 47.9558 13.363C50.3131 13.4369 54.7019 11.995 56.7263 11.2557H62.1845C62.1845 11.2557 57.4227 15.4431 53.8386 16.6344C51.0862 17.5492 46.7147 17.4661 46.7147 17.4661C41.1247 17.4661 38.4273 15.932 40.0095 11.0342Z" fill="#FFA500"/>
<path d="M62.1845 11.2557H56.7263C55.1618 16.0611 58.0653 17.5028 63.6553 17.5028C66.6479 17.5028 68.6515 17.2625 70.9674 16.6711L71.7532 12.5864C69.7289 13.3257 67.2536 13.4736 64.8964 13.3997C62.972 13.3257 61.8929 12.7713 62.1845 11.2557Z" fill="#FFA500"/>
<path d="M50.8521 5.7889L50.5214 7.50777L50.0876 9.76263L49.5116 12.8509C51.8934 12.4459 53.1638 12.0224 54.7381 11.5302L55.435 8.28403H56.8655L57.7046 3.92217H56.2742L56.644 2H51.5811L50.9268 5.40077L50.8521 5.7889Z" fill="#FFA500"/>
<path d="M17.1627 5.7889L16.832 7.50777L16.3982 9.76263L15.8221 12.8509C18.2039 12.4459 19.3801 11.9753 21.0486 11.3419L21.7456 8.28403H23.176L24.0152 3.92217H22.5848L22.9546 2H17.8916L17.2373 5.40077L17.1627 5.7889Z" fill="#FFA500"/>
</svg>
