<svg width="80" height="20" viewBox="0 0 80 20" fill="none" xmlns="http://www.w3.org/2000/svg">
<g id="Frame 39841">
<g id="Group 27">
<g id="Group 26">
<g id="Group 23">
<path id="Vector" d="M33.7002 12.5686L35.7697 2H40.0798L39.6389 4.29182H40.8811L40.0419 8.65368H38.7997L38.1703 11.1722C36.46 11.9283 35.2837 12.3047 33.7002 12.5686Z" fill="#FF234A"/>
<path id="Vector_2" d="M23.2375 9.76263L23.7702 6.99376C24.2186 6.83267 24.7186 6.4031 24.9762 5.34708H24.087L24.731 2H35.3651L34.7211 5.34708H33.8319C33.6866 6.38521 34.0179 6.83267 34.4043 6.99376L33.8716 9.76263C33.0913 9.76263 31.8241 9.4638 31.4061 8.71205L30.9631 9.03422C31.2753 9.3922 31.7666 9.76263 31.7666 9.76263C31.7666 9.76263 29.6477 10.7179 28.4305 10.5019C27.1836 10.2807 26.6972 9.60699 25.9621 8.71205L25.519 9.03422C25.7984 9.3743 26.504 9.76263 26.504 9.76263C26.504 9.76263 23.9845 10.5019 23.2375 9.76263ZM30.0392 5.34708H28.7508C28.696 6.00933 28.9115 6.4926 29.1502 6.76108C29.5172 6.4568 29.8574 6.00933 30.0392 5.34708Z" fill="#FF234A"/>
<path id="Vector_3" d="M67.3786 12.8509L69.4481 2H73.7582L73.3173 4.29182H74.5595L73.7203 8.65368H72.4781L71.8487 11.9251C70.4281 12.4611 68.9743 12.8509 67.3786 12.8509Z" fill="#FF234A"/>
<path id="Vector_4" d="M56.9163 9.76263L57.449 6.99376C57.8973 6.83267 58.3973 6.4031 58.655 5.34708H57.7658L58.4097 2H69.0438L68.3998 5.34708H67.5106C67.3654 6.38521 67.6967 6.83267 68.083 6.99376L67.5503 9.76263C66.77 9.76263 65.5028 9.4638 65.0849 8.71205L64.6418 9.03422C64.954 9.3922 65.4453 9.76263 65.4453 9.76263C65.4453 9.76263 63.3264 10.7179 62.1092 10.5019C60.8624 10.2807 60.376 9.60699 59.6408 8.71205L59.1977 9.03422C59.4771 9.3743 60.1827 9.76263 60.1827 9.76263C60.1827 9.76263 57.6632 10.5019 56.9163 9.76263ZM63.7179 5.34708H62.4295C62.3747 6.00933 62.5902 6.4926 62.8289 6.76108C63.1959 6.4568 63.5361 6.00933 63.7179 5.34708Z" fill="#FF234A"/>
<g id="Vector_5">
<path d="M6.70272 7.50777L7.76235 2H17.1919L16.5479 5.34708C15.4469 5.34708 13.5365 5.34708 12.1814 5.34708L11.8646 6.99376C12.8952 7.35991 14.519 7.38189 16.2311 6.99376L15.6984 9.76263C15.6984 9.76263 12.3566 10.5019 9.58982 10.5019C6.95482 10.5019 6.31514 9.52236 6.70272 7.50777Z" fill="#FF234A"/>
<path d="M6.70272 7.50777L7.76235 2H17.1919L16.5479 5.34708C15.4469 5.34708 13.5365 5.34708 12.1814 5.34708L11.8646 6.99376C12.8952 7.35991 14.519 7.38189 16.2311 6.99376L15.6984 9.76263C15.6984 9.76263 12.3566 10.5019 9.58982 10.5019C6.95482 10.5019 6.31514 9.52236 6.70272 7.50777Z" fill="#FF234A"/>
</g>
<g id="Vector_6">
<path d="M40.6596 7.50777L41.7192 2H51.1487L50.5048 5.34708C49.4038 5.34708 47.4934 5.34708 46.1382 5.34708L45.8214 6.99376C46.8521 7.35991 48.4759 7.38189 50.188 6.99376L49.6553 9.76263C49.6553 9.76263 46.3134 10.5019 43.5467 10.5019C40.9117 10.5019 40.272 9.52236 40.6596 7.50777Z" fill="#FF234A"/>
<path d="M40.6596 7.50777L41.7192 2H51.1487L50.5048 5.34708C49.4038 5.34708 47.4934 5.34708 46.1382 5.34708L45.8214 6.99376C46.8521 7.35991 48.4759 7.38189 50.188 6.99376L49.6553 9.76263C49.6553 9.76263 46.3134 10.5019 43.5467 10.5019C40.9117 10.5019 40.272 9.52236 40.6596 7.50777Z" fill="#FF234A"/>
</g>
</g>
<g id="Vector_7">
<path d="M6.33156 11.0342H11.7898C11.4982 12.5497 12.3535 13.289 14.2779 13.363C16.6351 13.4369 21.024 11.7735 23.0484 11.0342H28.5066C28.5066 11.0342 23.7806 15.4029 20.1607 16.6344C17.412 17.5695 13.0368 17.4661 13.0368 17.4661C7.44681 17.4661 4.74934 15.932 6.33156 11.0342Z" fill="#FF234A"/>
<path d="M28.5066 11.0342H23.0484C21.4839 15.8396 24.3874 17.5028 29.9773 17.5028C29.9773 17.5028 34.4725 17.6571 37.2895 16.6711C40.8587 15.4217 45.4679 11.0342 45.4679 11.0342H40.0097C37.9853 11.7735 33.5757 13.4736 31.2184 13.3997C29.2941 13.3257 28.215 12.5497 28.5066 11.0342Z" fill="#FF234A"/>
<path d="M40.0097 11.0342H45.4679C45.1763 12.5497 46.0316 13.289 47.956 13.363C50.3132 13.4369 54.7021 11.995 56.7265 11.2557H62.1847C62.1847 11.2557 57.4229 15.4431 53.8388 16.6344C51.0864 17.5492 46.7149 17.4661 46.7149 17.4661C41.1249 17.4661 38.4274 15.932 40.0097 11.0342Z" fill="#FF234A"/>
<path d="M62.1847 11.2557H56.7265C55.162 16.0611 58.0655 17.5028 63.6555 17.5028C66.6481 17.5028 68.6517 17.2625 70.9676 16.6711L71.7534 12.5864C69.7291 13.3257 67.2538 13.4736 64.8966 13.3997C62.9722 13.3257 61.8931 12.7713 62.1847 11.2557Z" fill="#FF234A"/>
</g>
<path id="Vector_8" d="M50.8523 5.7889L50.5216 7.50777L50.0878 9.76263L49.5117 12.8509C51.8935 12.4459 53.164 12.0224 54.7383 11.5302L55.4352 8.28403H56.8656L57.7048 3.92217H56.2744L56.6442 2H51.5812L50.927 5.40077L50.8523 5.7889Z" fill="#FF234A"/>
<path id="Vector_9" d="M17.1629 5.7889L16.8322 7.50777L16.3984 9.76263L15.8223 12.8509C18.2041 12.4459 19.3803 11.9753 21.0488 11.3419L21.7458 8.28403H23.1762L24.0154 3.92217H22.585L22.9548 2H17.8918L17.2375 5.40077L17.1629 5.7889Z" fill="#FF234A"/>
</g>
</g>
</g>
</svg>
