<svg width="32" height="32" viewBox="0 0 32 32" fill="none" xmlns="http://www.w3.org/2000/svg">
<g id="Symbol_01">
<g id="Group 48">
<g id="Vector">
<path d="M4.04125 12.2714L5.34324 5.50391H16.9294L16.1382 9.61651C14.7853 9.61651 12.438 9.61651 10.773 9.61651L10.3837 11.6398C11.65 12.0897 13.6452 12.1167 15.749 11.6398L15.0944 15.042C15.0944 15.042 10.9882 15.9504 7.58867 15.9504C4.35101 15.9504 3.56502 14.7468 4.04125 12.2714Z" fill="#FF234A"/>
<path d="M4.04125 12.2714L5.34324 5.50391H16.9294L16.1382 9.61651C14.7853 9.61651 12.438 9.61651 10.773 9.61651L10.3837 11.6398C11.65 12.0897 13.6452 12.1167 15.749 11.6398L15.0944 15.042C15.0944 15.042 10.9882 15.9504 7.58867 15.9504C4.35101 15.9504 3.56502 14.7468 4.04125 12.2714Z" fill="#FF234A"/>
</g>
<g id="Vector_2">
<path d="M1.9878 22.945L3.28978 16.1775H14.876L14.0848 20.2901C12.7319 20.2901 10.3846 20.2901 8.7195 20.2901L8.33024 22.3134C9.59656 22.7633 11.5918 22.7903 13.6955 22.3134L13.041 25.7156C13.041 25.7156 8.93476 26.6239 5.53522 26.6239C2.29755 26.6239 1.51157 25.4203 1.9878 22.945Z" fill="#FF234A"/>
<path d="M1.9878 22.945L3.28978 16.1775H14.876L14.0848 20.2901C12.7319 20.2901 10.3846 20.2901 8.7195 20.2901L8.33024 22.3134C9.59656 22.7633 11.5918 22.7903 13.6955 22.3134L13.041 25.7156C13.041 25.7156 8.93476 26.6239 5.53522 26.6239C2.29755 26.6239 1.51157 25.4203 1.9878 22.945Z" fill="#FF234A"/>
</g>
<path id="Vector_3" d="M15.8807 15.042L16.5353 11.6398C17.0862 11.4419 17.7006 10.9141 18.0171 9.61651H16.9245L17.7157 5.50391H30.782L29.9908 9.61651H28.8982C28.7197 10.8921 29.1268 11.4419 29.6015 11.6398L28.947 15.042C27.9882 15.042 26.4311 14.6748 25.9176 13.7511L25.3732 14.147C25.7568 14.5868 25.9738 14.7341 26.3605 15.042C25.1302 15.5258 23.757 16.2157 22.2614 15.9504C20.7294 15.6786 20.1317 14.8507 19.2284 13.7511L18.684 14.147C19.0273 14.5648 19.3641 14.6681 19.8943 15.042C18.6832 15.6578 16.7985 15.9504 15.8807 15.042ZM24.2381 9.61651H22.6549C22.5876 10.4302 22.8524 11.024 23.1457 11.3539C23.5967 10.98 24.0146 10.4302 24.2381 9.61651Z" fill="#FF234A"/>
<path id="Vector_4" d="M13.8491 25.602L14.5036 22.1999C15.0546 22.002 15.6689 21.4741 15.9855 20.1766H14.8929L15.6841 16.064H28.7504L27.9592 20.1766H26.8666C26.6881 21.4521 27.0952 22.002 27.5699 22.1999L26.9154 25.602C25.9566 25.602 24.3995 25.2349 23.886 24.3112L23.3416 24.707C23.7252 25.1469 23.9422 25.2941 24.3289 25.602C23.0986 26.0859 21.7254 26.7757 20.2298 26.5104C18.6978 26.2386 18.1001 25.4108 17.1968 24.3112L16.6524 24.707C16.9956 25.1249 17.3325 25.2282 17.8626 25.602C16.6516 26.2178 14.7669 26.5104 13.8491 25.602ZM22.2064 20.1766H20.6233C20.556 20.9903 20.8208 21.5841 21.1141 21.914C21.5651 21.5401 21.983 20.9903 22.2064 20.1766Z" fill="#FF234A"/>
</g>
</g>
</svg>
