<svg width="32" height="32" viewBox="0 0 32 32" fill="none" xmlns="http://www.w3.org/2000/svg">
<g id="threads" clip-path="url(#clip0_209_7980)">
<path id="Vector" d="M16.248 32H16.2388C11.4644 31.9676 7.79402 30.3936 5.32789 27.3201C3.13258 24.5854 2.00089 20.7802 1.96289 16.0116V15.9884C2.00095 11.2187 3.13258 7.41456 5.32789 4.67994C7.79283 1.60644 11.4644 0.03225 16.2376 0H16.2561C19.9161 0.0241875 22.978 0.965687 25.3577 2.79575C27.5945 4.51631 29.1688 6.96862 30.0376 10.0859L27.318 10.8442C25.8465 5.565 22.1219 2.86606 16.2469 2.82344C12.3679 2.85106 9.43502 4.07031 7.52783 6.44663C5.74158 8.67194 4.81852 11.886 4.78508 15.9989C4.81964 20.1129 5.7427 23.327 7.52783 25.5512C9.43508 27.9274 12.3679 29.1466 16.2469 29.1742C19.7432 29.1489 22.0573 28.3343 23.9819 26.4489C26.1783 24.2973 26.138 21.6583 25.435 20.0531C25.0213 19.1069 24.2698 18.3187 23.2569 17.7217C23.0023 19.5218 22.4295 20.983 21.5445 22.0836C20.3643 23.5529 18.6911 24.3562 16.573 24.4702C14.97 24.5566 13.4258 24.1776 12.2273 23.4019C10.8098 22.4846 9.98008 21.0809 9.89133 19.4492C9.80489 17.8624 10.4341 16.4034 11.6626 15.3408C12.8369 14.3256 14.4883 13.7298 16.4393 13.6203C17.8775 13.5396 19.2223 13.6031 20.4658 13.8104C20.301 12.8205 19.9668 12.0358 19.469 11.4688C18.7844 10.6886 17.7253 10.2899 16.3229 10.2806H16.2837C15.1578 10.2806 13.6286 10.5894 12.6536 12.0392L10.3108 10.4639C11.6153 8.52437 13.7346 7.45725 16.2826 7.45725H16.3402C20.6006 7.48375 23.1371 10.0893 23.3895 14.6401C23.5346 14.7013 23.6765 14.7646 23.817 14.8303C25.805 15.7649 27.2581 17.1801 28.021 18.9226C29.0835 21.3517 29.1815 25.3104 25.9559 28.4679C23.492 30.8809 20.5003 31.97 16.2561 31.9989H16.2469L16.248 32ZM17.5848 16.4114C17.2621 16.4114 16.9348 16.4206 16.6006 16.4402C14.1518 16.5785 12.626 17.6998 12.7124 19.297C12.8035 20.9703 14.6496 21.7481 16.4231 21.6526C18.0561 21.5649 20.1812 20.9299 20.5372 16.7052C19.636 16.5128 18.645 16.4114 17.5848 16.4114H17.5848Z" fill="#F7F7F7"/>
</g>
<defs>
<clipPath id="clip0_209_7980">
<rect width="32" height="32" fill="white"/>
</clipPath>
</defs>
</svg>
