<svg width="32" height="33" viewBox="0 0 32 33" fill="none" xmlns="http://www.w3.org/2000/svg">
<g id="threads 1" clip-path="url(#clip0_77_791)">
<path id="Vector" d="M16.248 32.916H16.2388C11.4644 32.8836 7.79402 31.3096 5.32789 28.2361C3.13258 25.5014 2.00089 21.6962 1.96289 16.9276V16.9045C2.00095 12.1347 3.13258 8.33058 5.32789 5.59595C7.79283 2.52245 11.4644 0.948266 16.2376 0.916016H16.2561C19.9161 0.940203 22.978 1.8817 25.3577 3.71177C27.5945 5.43233 29.1688 7.88464 30.0376 11.0019L27.318 11.7602C25.8465 6.48102 22.1219 3.78208 16.2469 3.73945C12.3679 3.76708 9.43502 4.98633 7.52783 7.36264C5.74158 9.58795 4.81852 12.802 4.78508 16.9149C4.81964 21.029 5.7427 24.243 7.52783 26.4672C9.43508 28.8434 12.3679 30.0626 16.2469 30.0903C19.7432 30.065 22.0573 29.2503 23.9819 27.3649C26.1783 25.2133 26.138 22.5743 25.435 20.9691C25.0213 20.0229 24.2698 19.2347 23.2569 18.6377C23.0023 20.4378 22.4295 21.899 21.5445 22.9996C20.3643 24.4689 18.6911 25.2722 16.573 25.3862C14.97 25.4726 13.4258 25.0936 12.2273 24.318C10.8098 23.4006 9.98008 21.997 9.89133 20.3652C9.80489 18.7784 10.4341 17.3194 11.6626 16.2568C12.8369 15.2416 14.4883 14.6458 16.4393 14.5363C17.8775 14.4556 19.2223 14.5191 20.4658 14.7265C20.301 13.7365 19.9668 12.9518 19.469 12.3848C18.7844 11.6046 17.7253 11.2059 16.3229 11.1966H16.2837C15.1578 11.1966 13.6286 11.5055 12.6536 12.9552L10.3108 11.3799C11.6153 9.44039 13.7346 8.37327 16.2826 8.37327H16.3402C20.6006 8.39977 23.1371 11.0053 23.3895 15.5561C23.5346 15.6173 23.6765 15.6806 23.817 15.7463C25.805 16.681 27.2581 18.0961 28.021 19.8386C29.0835 22.2678 29.1815 26.2264 25.9559 29.3839C23.492 31.797 20.5003 32.886 16.2561 32.9149H16.2469L16.248 32.916ZM17.5848 17.3274C17.2621 17.3274 16.9348 17.3366 16.6006 17.3562C14.1518 17.4945 12.626 18.6158 12.7124 20.213C12.8035 21.8863 14.6496 22.6641 16.4231 22.5686C18.0561 22.4809 20.1812 21.846 20.5372 17.6212C19.636 17.4288 18.645 17.3274 17.5848 17.3274H17.5848Z" fill="black"/>
</g>
<defs>
<clipPath id="clip0_77_791">
<rect width="32" height="32" fill="white" transform="translate(0 0.916016)"/>
</clipPath>
</defs>
</svg>
