<svg width="32" height="33" viewBox="0 0 32 33" fill="none" xmlns="http://www.w3.org/2000/svg">
<g id="tik-tok 1" clip-path="url(#clip0_77_793)">
<g id="Group">
<path id="Vector" d="M30.0199 8.94043C28.1937 8.94043 26.5087 8.33543 25.1556 7.3148C23.6037 6.1448 22.4887 4.42855 22.0949 2.45043C21.9974 1.96168 21.9449 1.4573 21.9399 0.94043H16.7231V15.1954L16.7168 23.0036C16.7168 25.0911 15.3574 26.8611 13.4731 27.4836C12.9262 27.6642 12.3356 27.7498 11.7206 27.7161C10.9356 27.6729 10.1999 27.4361 9.56057 27.0536C8.19995 26.2398 7.27745 24.7636 7.25245 23.0748C7.21307 20.4354 9.34682 18.2836 11.9843 18.2836C12.5049 18.2836 13.0049 18.3686 13.4731 18.5229V14.6267V13.2261C12.9793 13.1529 12.4768 13.1148 11.9687 13.1148C9.08182 13.1148 6.38182 14.3148 4.45182 16.4767C2.99307 18.1104 2.11807 20.1948 1.98307 22.3804C1.8062 25.2517 2.85682 27.9811 4.89432 29.9948C5.1937 30.2904 5.50807 30.5648 5.83682 30.8179C7.5837 32.1623 9.71932 32.8911 11.9687 32.8911C12.4768 32.8911 12.9793 32.8536 13.4731 32.7804C15.5743 32.4692 17.5131 31.5073 19.0431 29.9948C20.9231 28.1367 21.9618 25.6698 21.9731 23.0442L21.9462 11.3842C22.8431 12.0761 23.8237 12.6486 24.8762 13.0929C26.5131 13.7836 28.2487 14.1336 30.0349 14.1329V10.3448V8.93918C30.0362 8.94043 30.0212 8.94043 30.0199 8.94043Z" fill="black"/>
</g>
</g>
<defs>
<clipPath id="clip0_77_793">
<rect width="32" height="32" fill="white" transform="translate(0 0.916016)"/>
</clipPath>
</defs>
</svg>
