<svg width="108" height="42" viewBox="0 0 108 42" fill="none" xmlns="http://www.w3.org/2000/svg">
<g id="Frame 39963">
<g id="Group 26">
<g id="Group 23">
<path id="Vector" d="M44.5088 25.5294L47.6755 9.25732H54.2708L53.5961 12.786H55.4969L54.2128 19.5018H52.312L51.3489 23.3795C48.7318 24.5436 46.9318 25.1232 44.5088 25.5294Z" fill="#F7F7F7"/>
<path id="Vector_2" d="M28.5009 21.2092L29.316 16.9461C30.0021 16.6981 30.7672 16.0367 31.1614 14.4107H29.8008L30.7861 9.25732H47.0582L46.0728 14.4107H44.7122C44.4899 16.0091 44.9968 16.6981 45.5881 16.9461L44.773 21.2092C43.5789 21.2092 41.6398 20.7491 41.0003 19.5917L40.3224 20.0877C40.8001 20.6389 41.5519 21.2092 41.5519 21.2092C41.5519 21.2092 38.3096 22.6799 36.4471 22.3475C34.5392 22.0069 33.7949 20.9696 32.6699 19.5917L31.992 20.0877C32.4194 20.6113 33.4991 21.2092 33.4991 21.2092C33.4991 21.2092 29.6439 22.3475 28.5009 21.2092ZM38.9087 14.4107H36.9372C36.8533 15.4304 37.1831 16.1744 37.5483 16.5878C38.11 16.1193 38.6304 15.4304 38.9087 14.4107Z" fill="#F7F7F7"/>
<path id="Vector_3" d="M96.0423 25.9641L99.209 9.25732H105.804L105.13 12.786H107.03L105.746 19.5018H103.845L102.882 24.5387C100.709 25.3639 98.4839 25.9641 96.0423 25.9641Z" fill="#F7F7F7"/>
<path id="Vector_4" d="M80.0331 21.2092L80.8482 16.9461C81.5343 16.6981 82.2995 16.0367 82.6936 14.4107H81.333L82.3184 9.25732H98.5904L97.6051 14.4107H96.2444C96.0221 16.0091 96.5291 16.6981 97.1203 16.9461L96.3052 21.2092C95.1112 21.2092 93.1721 20.7491 92.5326 19.5917L91.8546 20.0877C92.3323 20.6389 93.0841 21.2092 93.0841 21.2092C93.0841 21.2092 89.8418 22.6799 87.9793 22.3475C86.0714 22.0069 85.3271 20.9696 84.2022 19.5917L83.5242 20.0877C83.9517 20.6113 85.0314 21.2092 85.0314 21.2092C85.0314 21.2092 81.1761 22.3475 80.0331 21.2092ZM90.4409 14.4107H88.4694C88.3855 15.4304 88.7153 16.1744 89.0805 16.5878C89.6422 16.1193 90.1627 15.4304 90.4409 14.4107Z" fill="#F7F7F7"/>
<g id="Vector_5">
<path d="M3.19791 17.7375L4.81934 9.25732H19.2482L18.2628 14.4107C16.578 14.4107 13.6548 14.4107 11.5812 14.4107L11.0965 16.9461C12.6735 17.5098 15.1582 17.5437 17.7781 16.9461L16.963 21.2092C16.963 21.2092 11.8493 22.3475 7.61568 22.3475C3.58367 22.3475 2.60484 20.8393 3.19791 17.7375Z" fill="#F7F7F7"/>
<path d="M3.19791 17.7375L4.81934 9.25732H19.2482L18.2628 14.4107C16.578 14.4107 13.6548 14.4107 11.5812 14.4107L11.0965 16.9461C12.6735 17.5098 15.1582 17.5437 17.7781 16.9461L16.963 21.2092C16.963 21.2092 11.8493 22.3475 7.61568 22.3475C3.58367 22.3475 2.60484 20.8393 3.19791 17.7375Z" fill="#F7F7F7"/>
</g>
<g id="Vector_6">
<path d="M55.1588 17.7375L56.7803 9.25732H71.2091L70.2238 14.4107C68.539 14.4107 65.6158 14.4107 63.5422 14.4107L63.0574 16.9461C64.6344 17.5098 67.1191 17.5437 69.739 16.9461L68.9239 21.2092C68.9239 21.2092 63.8102 22.3475 59.5766 22.3475C55.5446 22.3475 54.5658 20.8393 55.1588 17.7375Z" fill="#F7F7F7"/>
<path d="M55.1588 17.7375L56.7803 9.25732H71.2091L70.2238 14.4107C68.539 14.4107 65.6158 14.4107 63.5422 14.4107L63.0574 16.9461C64.6344 17.5098 67.1191 17.5437 69.739 16.9461L68.9239 21.2092C68.9239 21.2092 63.8102 22.3475 59.5766 22.3475C55.5446 22.3475 54.5658 20.8393 55.1588 17.7375Z" fill="#F7F7F7"/>
</g>
</g>
<g id="Vector_7">
<path d="M2.63146 23.1675H10.9835C10.5373 25.5009 11.8461 26.6392 14.7907 26.753C18.3978 26.8669 25.1135 24.3058 28.2112 23.1675H36.5632C36.5632 23.1675 29.3316 29.8938 23.7925 31.7899C19.5865 33.2297 12.8916 33.0705 12.8916 33.0705C4.33799 33.0705 0.21038 30.7086 2.63146 23.1675Z" fill="#F7F7F7"/>
<path d="M36.5632 23.1675H28.2112C25.8173 30.5663 30.2601 33.127 38.8138 33.127C38.8138 33.127 45.6922 33.3647 50.0026 31.8464C55.4642 29.9227 62.517 23.1675 62.517 23.1675H54.165C51.0674 24.3058 44.3199 26.9234 40.7129 26.8096C37.7682 26.6957 36.117 25.5009 36.5632 23.1675Z" fill="#F7F7F7"/>
<path d="M54.165 23.1675H62.517C62.0709 25.5009 63.3796 26.6392 66.3243 26.753C69.9313 26.8669 76.6471 24.6468 79.7447 23.5086H88.0967C88.0967 23.5086 80.8104 29.9558 75.326 31.7899C71.1144 33.1984 64.4252 33.0705 64.4252 33.0705C55.8715 33.0705 51.7439 30.7086 54.165 23.1675Z" fill="#F7F7F7"/>
<path d="M88.0967 23.5086H79.7447C77.3509 30.9074 81.7937 33.127 90.3473 33.127C94.9265 33.127 97.9925 32.757 101.536 31.8464L102.739 25.5575C99.641 26.6957 95.8535 26.9234 92.2464 26.8096C89.3018 26.6957 87.6506 25.842 88.0967 23.5086Z" fill="#F7F7F7"/>
</g>
<path id="Vector_8" d="M70.7547 15.0915L70.2487 17.738L69.5849 21.2097L68.7034 25.9646C72.348 25.341 74.292 24.689 76.7009 23.9311L77.7674 18.9332H79.9562L81.2403 12.2173H79.0515L79.6173 9.25781H71.8701L70.869 14.4939L70.7547 15.0915Z" fill="#F7F7F7"/>
<path id="Vector_9" d="M19.2049 15.0915L18.6989 17.738L18.0351 21.2097L17.1536 25.9646C20.7982 25.341 22.598 24.6165 25.1511 23.6413L26.2176 18.9332H28.4064L29.6905 12.2173H27.5017L28.0675 9.25781H20.3203L19.3192 14.4939L19.2049 15.0915Z" fill="#F7F7F7"/>
</g>
</g>
</svg>
